<?xml version="1.0"?>
<svg xmlns="http://www.w3.org/2000/svg" xmlns:xlink="http://www.w3.org/1999/xlink" version="1.1" id="Capa_1" x="0px" y="0px" viewBox="0 0 508 508" style="enable-background:new 0 0 508 508;" xml:space="preserve" width="512px" height="512px"><g><g>
	<g>
		<rect x="365.8" y="217.65" width="22.3" height="16.4" data-original="#000000" class="active-path" data-old_color="#000000" fill="#FFCD09"/>
	</g>
</g><g>
	<g>
		<rect x="321" y="217.65" width="22.3" height="16.4" data-original="#000000" class="active-path" data-old_color="#000000" fill="#FFCD09"/>
	</g>
</g><g>
	<g>
		<rect x="276.3" y="217.65" width="22.3" height="16.4" data-original="#000000" class="active-path" data-old_color="#000000" fill="#FFCD09"/>
	</g>
</g><g>
	<g>
		<path d="M452.1,159.75V55.05H318.6l0.4-0.6l-65-51.3l-65.7,51.9H55.9v104.6L0,203.75v301.1h508v-301.1L452.1,159.75z     M452.2,180.65l33.9,26.7l-33.9,26.3V180.65z M254,24.05l39.3,31h-78.6L254,24.05z M72.3,71.55h363.5v174.7L254,387.05    L72.3,246.55V71.55z M55.9,180.55v53.3l-34.1-26.4L55.9,180.55z M491.6,488.65H16.4v-0.1v-264.5l161.6,125l-108,87.1l10.3,12.8    l111-89.6l62.7,48.5l62.6-48.4l111,89.6l10.3-12.8l-108-87.2l161.7-125.2V488.65z" data-original="#000000" class="active-path" data-old_color="#000000" fill="#FFCD09"/>
	</g>
</g><g>
	<g>
		<rect x="119.9" y="109.25" width="268.2" height="16.4" data-original="#000000" class="active-path" data-old_color="#000000" fill="#FFCD09"/>
	</g>
</g><g>
	<g>
		<rect x="119.9" y="163.45" width="268.2" height="16.4" data-original="#000000" class="active-path" data-old_color="#000000" fill="#FFCD09"/>
	</g>
</g><g>
	<g>
		<rect x="119.9" y="217.65" width="134.1" height="16.4" data-original="#000000" class="active-path" data-old_color="#000000" fill="#FFCD09"/>
	</g>
</g></g> </svg>
