<svg width="435" height="791" viewBox="0 0 435 791" fill="none" xmlns="http://www.w3.org/2000/svg">
<path d="M268.408 112.579C268.408 112.579 246.782 101.592 240.056 104.648C233.335 107.713 236.154 112.579 236.154 112.579L251.988 121.256L261.759 122.608L268.408 112.579Z" fill="#9FB2B2"/>
<path d="M292.226 647.941C292.226 649.371 292.226 681.217 292.226 681.217C292.226 681.217 277.006 683.595 277.006 681.217C277.006 678.843 273.682 647.941 273.682 647.941H292.226Z" fill="#E7D0CA"/>
<path d="M246.401 448.893C246.22 455.894 273.274 654.179 273.274 654.179H291.439C302.87 612.574 304.356 562.674 303.702 529.285C303.27 506.835 301.868 491.839 301.868 491.839C307.272 482.636 312.225 473.16 316.773 463.534C361.127 369.553 366.402 261.509 366.402 261.509L291.439 284.9C291.439 284.9 246.591 441.891 246.401 448.893Z" fill="#757C84"/>
<path d="M315.226 285.821C315.226 285.821 446.95 468.076 465.53 486.594C484.123 505.111 661.154 462.04 667.366 458.313C673.575 454.598 667.617 438.33 666.005 436.343C664.693 434.736 546.989 435.221 502.485 435.463C492.096 435.515 485.698 435.56 485.698 435.56C483.25 423.091 479.385 410.368 474.59 397.746C448.052 327.879 393.094 261.509 393.094 261.509L315.226 285.821Z" fill="#8F959C"/>
<path d="M198.175 103.242C201.455 105.511 204.63 111.665 207.304 118.202C211.056 127.368 213.827 137.293 214.53 138.359C215.746 140.172 261.773 122.619 261.773 122.619L223.614 91.0356L216.259 84.9547L209.081 79.0229L198.175 103.242Z" fill="#E7D0CA"/>
<path d="M198.165 103.297C201.437 105.566 204.616 111.72 207.286 118.257C210.089 106.103 219.258 95.5443 223.596 91.0906L216.241 85.0098L206.45 88.8374L202.855 92.8591L198.165 103.297Z" fill="#D1BAB4"/>
<path d="M158.821 68.5535L158.825 68.5775C157.754 52.4425 158.788 37.0907 165.489 31.785C180.026 20.2772 210.91 25.7326 210.91 25.7326C210.91 25.7326 230.032 44.7706 224.842 65.6864C224.842 65.6864 233.32 59.6337 232.714 69.9261C232.108 80.2185 220.6 82.0316 220.6 82.0316C220.6 82.0316 216.363 105.039 211.516 106.86C206.673 108.677 167.917 125.022 165.489 113.518C164.754 110.038 163.139 102.225 161.64 92.7157V92.7196C153.396 91.0439 158.841 68.925 158.821 68.5535Z" fill="#E7D0CA"/>
<path d="M175.09 38.2132C176.18 37.9831 177.283 37.7771 178.385 37.5914C177.796 37.6398 177.21 37.6885 176.621 37.7168C175.203 37.7975 173.785 37.846 172.371 37.8824C171.466 38.4477 170.582 39.0574 169.726 39.6994C171.479 39.0857 173.276 38.6008 175.09 38.2132ZM185.596 33.9211C188.928 33.4688 192.272 32.9037 195.548 32.1486C197.148 31.7812 198.739 31.3412 200.278 30.7637C199.503 30.8607 198.727 30.9414 197.952 31.0181C195.665 31.2361 193.363 31.3732 191.077 31.6316C188.79 31.882 186.508 32.3061 184.271 32.8714C182.457 33.3317 180.668 33.9089 178.919 34.5953C181.152 34.4379 183.382 34.2158 185.596 33.9211ZM151.759 45.1666C152.999 39.3764 156.247 34.3006 160.565 30.3032C164.968 26.2169 170.238 23.1886 175.655 20.6609C181.787 17.7981 188.415 15.2382 195.294 15.4602C198.561 15.5733 201.777 16.3284 204.729 17.7457C206.507 18.6058 208.26 19.7647 209.661 21.2264C212.061 20.5117 214.973 20.9999 217.206 21.8963C220.733 23.3095 223.855 25.7527 226.396 28.5631C231.441 34.1756 234.405 41.5687 234.648 49.1153C234.765 52.8423 234.223 56.7267 232.83 60.1992C231.949 62.4039 230.726 64.4351 228.73 65.7958C226.965 66.991 224.501 67.5076 222.461 66.7647C220.971 66.2276 219.856 65.19 219.073 63.9019L219.036 64.6972C218.903 66.9463 218.592 69.1917 218.124 71.3963C217.942 72.2322 216.823 72.9386 215.991 72.5994C214.585 72.0341 213.664 71.0733 213.115 69.6641C212.695 68.5819 212.594 67.3584 212.618 66.2035C212.642 64.7419 212.84 63.28 212.925 61.8183C213.014 60.2234 213.054 58.6247 212.985 57.0297C212.86 54.0215 212.153 51.1465 210.901 48.4048C209.604 45.5743 208.042 42.8771 206.87 39.99C206.212 38.3708 205.739 36.699 205.513 34.9668C205.404 34.1229 205.311 33.2387 205.388 32.3868L205.424 32.0394C204.224 33.0044 202.94 33.8483 201.575 34.563C198.315 36.3033 194.777 37.4098 191.166 38.1769C183.435 39.8042 175.227 40.0709 167.977 43.4829C166.296 44.2743 164.656 45.2068 163.206 46.3535L163.081 46.4628L162.354 47.5085C159.716 51.5584 158.064 56.1573 157.854 60.8574C157.769 62.6744 155.588 63.1349 154.595 61.7418C151.166 56.957 150.547 50.8075 151.759 45.1666Z" fill="#5D6369"/>
<path d="M175.306 74.2817L175.331 73.5148L175.44 72.9979L175.723 72.5657L175.779 72.5172L175.84 72.4407L176.236 72.182L176.716 72.0771L177.347 72.2467L178.158 73.0263L178.474 74.1244L178.445 74.5483L178.356 74.9603L178.183 75.3681L178.162 75.3921L178.061 75.6425L177.876 75.8767L177.5 76.1271L177.27 76.1918L177.181 76.232L176.668 76.3491L176.312 76.3006L175.997 76.1634L175.622 75.8243L175.383 75.3681L175.306 74.2817Z" fill="#545454"/>
<path d="M213.022 56.9409V60.4215C213.022 60.4215 159.397 71.1658 158.642 65.9652C157.89 60.7686 158.642 62.1616 158.642 62.1616L213.022 56.9409Z" fill="#D1BAB4"/>
<path d="M165.201 44.8102C167.322 40.8693 169.677 37.0739 172.274 33.4278C177.529 26.0466 183.568 19.2668 190.382 13.3029C191.876 11.9906 193.424 10.7271 194.971 9.48749C193.941 9.97202 192.914 10.4847 191.9 11.0218L191.682 11.2639C190.277 12.7175 188.39 13.5131 186.516 14.1874C183.955 15.8792 181.524 17.7527 179.294 19.8281C177.658 21.3544 176.115 22.9778 174.694 24.6979C173.312 26.3413 172.395 27.6091 171.236 29.4463C170.157 31.1664 169.184 32.9553 168.327 34.7925C167.439 36.6862 166.857 38.1924 166.227 40.2597C165.726 41.9193 165.326 43.5181 165.036 45.113L165.201 44.8102ZM174.855 38.8465V38.8382L174.907 38.7735L175.869 37.7318C178.636 34.764 181.508 31.8974 184.472 29.1395C187.781 26.0587 191.21 23.0989 194.744 20.2764C196.594 18.7946 198.473 17.3569 200.375 15.9598C201.365 15.2411 202.358 14.5224 203.368 13.8199L203.724 13.5655C203.376 12.6651 203.291 11.6881 203.364 10.6988C203.392 10.178 203.473 9.65269 203.578 9.13181L203.76 8.2718C202.419 9.39835 200.924 10.3596 199.523 11.4094C197.713 12.7621 196.275 13.9167 194.619 15.3218C191.271 18.1685 188.1 21.2133 185.082 24.4113C179.197 30.6537 174.18 37.3604 169.79 44.6931C171.417 42.6943 173.114 40.7483 174.855 38.8465ZM181.35 48.6662C181.964 48.1574 182.59 47.6771 183.208 47.1966C184.327 46.3365 185.462 45.5087 186.625 44.7092C188.924 43.1466 191.311 41.7214 193.775 40.4455C194.675 39.965 195.592 39.5248 196.517 39.0847C198.84 37.3444 201.134 35.5596 203.388 33.7345C205.61 31.9377 207.956 30.1649 209.98 28.1419L210.057 28.0615L209.976 27.6415C209.835 26.838 209.835 25.9494 210.061 25.1621L209.742 25.0651L209.471 25.0126L209.33 25.0008L208.793 25.0209C208.348 25.0451 207.621 25.2794 207.04 25.5055C205.965 25.9295 204.612 26.7691 203.485 27.4515C198.605 30.3789 194.102 33.8636 189.845 37.6269C187.506 39.6983 185.159 41.8423 183.026 44.1398C182.198 45.0281 181.411 46.0698 181.213 47.3054C181.152 47.7011 181.18 48.2058 181.318 48.6863L181.35 48.6662ZM203.392 46.2881C207.411 44.8102 211.426 43.3203 215.445 41.8102L216.564 41.2972C219.129 40.102 221.694 38.8665 224.21 37.5583L224.946 37.1466L225.091 37.0535L225.204 36.9687L225.228 36.9202L225.208 36.9325L225.285 36.8315L225.293 36.8154L225.228 36.6052L225.22 36.5811L225.208 36.5689C221.072 36.7183 216.988 37.2434 212.969 38.1276C212.177 38.3861 211.39 38.6564 210.614 38.9431C205.8 40.6955 201.211 42.8436 196.776 45.4561C193.375 47.4588 190.164 49.7163 187.013 52.0704C192.511 50.2493 197.963 48.2747 203.392 46.2881ZM205.174 51.0124C208.457 50.3219 211.754 49.6475 215.05 48.9651C216.447 48.6744 217.853 48.3916 219.25 48.0968C223.483 47.2246 227.979 46.4615 231.57 44.0065C232.939 43.0738 234.171 41.6891 235.044 40.1103C235.565 39.1574 235.977 37.9983 236.094 36.8193L234.91 37.6876C233.303 38.8182 231.57 39.763 229.788 40.5827C226.492 42.1009 223.096 43.3809 219.731 44.7214C219.246 44.9072 218.762 45.097 218.281 45.2908C213.858 47.3501 209.386 49.2762 204.862 51.0771L205.174 51.0124ZM137.432 50.7742C137.763 48.505 138.522 46.3325 139.354 44.2006L139.459 43.9261C140.328 41.7578 141.305 39.6299 142.424 37.5665L142.981 36.5811L143.539 35.6001L143.563 35.5717C147.978 28.1421 153.944 21.7138 160.794 16.4606C169.241 9.98395 179.104 5.42515 189.279 2.43312C191.828 1.68613 194.397 1.02399 196.982 0.47888C199.652 -0.0864157 202.467 -0.385152 204.963 0.94733C207.233 2.17483 208.566 4.52888 208.328 7.10501C208.223 8.22753 207.957 9.29752 207.747 10.4039L207.69 10.6988L207.662 10.9208L207.641 11.3124L207.674 11.7284L207.726 11.8696L208.7 12.435L208.829 12.4429L209.039 12.4149L210.198 12.0715L210.202 12.0675L210.445 11.9421L211.002 11.603L211.321 11.3771L211.737 10.9894C212.497 10.194 213.163 9.30567 213.854 8.46581C215.429 6.56399 217.319 4.85593 219.84 4.46426C222.328 4.0847 224.784 4.92878 226.872 6.25723C232.523 9.863 236.655 15.5805 238.961 21.8876C239.466 23.2645 239.882 24.6695 240.206 26.0828L240.775 26.955L240.804 27.0682C241.111 27.262 241.341 27.6011 241.357 28.0654C241.369 28.5338 241.337 28.9778 241.272 29.4179L241.349 29.8663C241.563 31.0171 241.728 32.1396 241.821 33.2298C241.979 35.3497 241.959 37.4573 241.68 39.561C241.098 43.9541 238.877 47.9315 235.06 50.3058C232.911 51.6585 230.451 52.486 228.044 53.2573C225.543 54.0568 223.027 54.824 220.51 55.5751L220.317 55.6275C215.328 57.1054 210.299 58.4743 205.23 59.6776C194.926 62.1285 184.424 63.9533 173.849 64.7367C168.639 65.1324 163.4 65.2659 158.173 65.0801C155.551 64.9953 152.938 64.8299 150.329 64.5715C147.929 64.3494 145.55 64.0706 143.292 63.1499C141.026 62.2293 139.164 60.5457 138.163 58.2967C137.1 55.9063 137.056 53.3302 137.432 50.7742ZM175.869 37.7318C178.636 34.764 181.508 31.8974 184.472 29.1395L174.907 38.7735L175.869 37.7318Z" fill="#757C84"/>
<path d="M230.227 30.4547C234.82 30.9836 238.843 30.4508 241.42 29.9097L241.343 29.4534C241.404 29.0133 241.44 28.5688 241.424 28.1044C241.412 27.64 241.178 27.2968 240.867 27.111L240.838 26.9939L240.277 26.122C239.95 24.7007 239.53 23.2992 239.029 21.9263C233.879 24.4945 224.253 29.7682 230.227 30.4547Z" fill="#757C84"/>
<path d="M140.124 40.5237L140.452 40.043L140.124 40.5237Z" fill="#F1862B"/>
<path d="M138.276 58.4115C139.274 60.6646 141.144 62.3445 143.41 63.2691C145.664 64.1897 148.047 64.4641 150.446 64.6902C153.055 64.9446 155.665 65.1104 158.291 65.2033C163.513 65.3809 168.748 65.2475 173.967 64.8559C184.541 64.0685 195.035 62.2433 205.352 59.7964C210.417 58.589 215.446 57.2283 220.434 55.7424C217.518 51.9953 159.991 62.2919 148.467 58.3106C140.692 55.6254 139.278 48.8336 139.468 44.3193C138.64 46.4473 137.868 48.6238 137.549 50.893C137.177 53.4449 137.218 56.0252 138.276 58.4115Z" fill="#878F98"/>
<path d="M212.657 28.8628C214.232 27.0781 211.901 27.3407 210.06 27.7323L210.144 28.1562L210.072 28.241C208.048 30.2599 205.701 32.0327 203.48 33.8214C201.222 35.6546 198.932 37.4392 196.605 39.1795C195.68 39.6156 194.763 40.0599 193.862 40.5363C191.398 41.8163 189.015 43.2378 186.717 44.8045C185.553 45.6039 184.418 46.4317 183.3 47.2958C182.682 47.7682 182.047 48.2488 181.433 48.7575C180.953 49.452 180.585 50.1625 180.407 50.8691C179.511 54.3336 210.294 31.544 212.657 28.8628Z" fill="#757C84"/>
<path d="M215.132 49.0074L216.041 50.5618C235.87 51.5672 237.804 40.8471 237.453 37.5845C237.275 35.9169 236.104 36.6314 234.993 37.7296L236.18 36.8657C236.063 38.0367 235.652 39.1995 235.123 40.1484C234.258 41.7312 233.026 43.1162 231.653 44.0489C228.062 46.4999 223.566 47.2669 219.337 48.1431C217.94 48.4338 216.534 48.7208 215.132 49.0074Z" fill="#757C84"/>
<path d="M174.905 38.8556C175.083 39.4733 205.134 14.4548 205.134 14.4548C205.134 14.4548 206.912 13.2233 205.942 10.6997C205.575 9.75079 204.553 10.0094 203.414 10.708C203.341 11.6972 203.426 12.6742 203.773 13.5747L203.418 13.829C202.408 14.5316 201.415 15.2502 200.425 15.969C198.522 17.366 196.644 18.8037 194.794 20.2856C191.26 23.108 187.831 26.0678 184.523 29.1486L174.958 38.7826L174.905 38.8473V38.8556Z" fill="#757C84"/>
<path d="M217.017 164.435C231.017 200.646 263.904 264.346 263.904 264.346C263.904 264.346 263.622 286.28 267.628 302.342C270.032 311.981 316.96 299.762 354.904 287.947C380.222 280.053 401.549 272.341 402.991 271.396C406.598 269.046 349.326 185.217 322.094 156.234C294.861 127.246 246.766 109.528 245.603 109.225C235.194 106.484 213.067 118.835 213.067 118.835C213.067 118.835 210.813 124.222 210.841 142.917C210.849 146.894 213.244 154.663 217.017 164.435Z" fill="#475051"/>
<path d="M277.132 305.689C287.404 305.689 304.736 301.995 323.3 297.024C333.79 294.214 344.668 291.004 354.895 287.818C354.669 283.74 351.825 280.17 342.567 280.17C340.645 280.17 338.447 280.328 335.943 280.663C333.362 281.006 330.837 281.163 328.386 281.163C301.65 281.163 282.863 262.186 279.111 256.093C277.217 253.016 264.671 226.524 251.35 200.751C246.434 196.333 241.764 191.516 237.442 186.263L240.904 181.074C231.222 163.449 222.546 149.7 218.915 149.7C218.139 149.7 217.598 150.33 217.319 151.683C216.665 154.913 216.62 159.25 217.008 164.305C231.008 200.516 263.895 264.217 263.895 264.217C263.895 264.225 263.891 264.552 263.891 265.134C263.891 269.446 264.097 288.097 267.619 302.213C268.229 304.656 271.691 305.689 277.132 305.689Z" fill="#3F4748"/>
<path d="M285.22 480.449C285.786 482.416 296.671 508.75 303.647 529.315C303.215 506.865 301.813 491.868 301.813 491.868C307.218 482.666 312.17 473.189 316.718 463.563C309.536 471.622 300.844 480.243 296.36 480.449C287.91 480.833 284.457 477.76 285.22 480.449Z" fill="#889099"/>
<path d="M244.218 176.188C244.218 176.188 321.864 233.275 383.047 234.631C383.66 234.648 384.279 234.652 384.893 234.66L394.627 249.547C394.627 249.547 290.552 250.726 237.489 186.271L244.218 176.188Z" fill="#9FB2B2"/>
<path d="M169.35 225.213C169.382 225.653 169.418 226.073 169.459 226.457C169.608 227.874 169.802 228.823 169.802 228.823C169.802 228.823 173.764 230.535 180.191 233.163L180.215 233.172C199.935 241.235 242.767 257.875 265.128 260.067C272.686 260.806 275.634 254.047 275.836 243.553C276.438 212.837 250.037 155.351 250.037 155.351L229.732 160.563L230.617 222.419C230.617 222.419 180.324 212.038 173.748 213.94C169.434 215.191 169.079 221.216 169.35 225.213Z" fill="#DBC6C0"/>
<path d="M168.532 225.239C168.508 225.457 168.834 225.837 169.469 226.37C171.129 227.751 174.938 230.121 180.201 233.077L180.225 233.085C199.945 241.149 242.777 257.788 265.138 259.981C272.696 260.72 275.644 253.961 275.846 243.466C257.088 255.204 178.315 226.156 169.36 225.127C168.839 225.058 168.548 225.102 168.532 225.239Z" fill="#D1B9B3"/>
<path d="M175.973 213.678C175.767 211.687 151.661 203.692 148.389 206.596C145.113 209.503 131.138 234.242 131.695 241.761C132.252 249.283 139.212 251.746 139.212 251.746C139.212 251.746 157.408 227.406 165.196 229.631C172.983 231.864 180.21 220.712 180.21 220.712L175.973 213.678Z" fill="#DBC6C0"/>
<path d="M172.986 244.518L173.321 245.729C173.733 247.094 174.088 247.994 174.088 247.994C174.088 247.994 178.301 248.947 185.095 250.356L185.12 250.36C205.986 254.685 251.136 263.229 273.522 261.295C281.083 260.649 282.752 253.461 281.035 243.104C276.01 212.801 241.98 155.351 241.98 155.351L220.539 169.935L232.709 230.587C232.709 230.587 181.367 229.566 175.252 232.634C171.237 234.653 171.992 240.645 172.986 244.518Z" fill="#E7D0CA"/>
<path d="M273.125 217.275H230.083L229.182 213.314L268.88 207.237L273.125 217.275Z" fill="#DBC2BC"/>
<path d="M212.674 218.253C212.674 218.253 206.328 132.065 220.001 129.437C233.67 126.808 274.87 172.863 281.652 208.748L212.674 218.253Z" fill="#475051"/>
<path d="M172.19 244.739C172.206 244.953 172.594 245.272 173.321 245.68C175.203 246.73 179.384 248.369 185.095 250.308L185.12 250.311C205.986 254.636 251.136 263.18 273.522 261.246C281.083 260.6 282.752 253.413 281.035 243.056C264.737 258.028 181.977 243.855 172.986 244.469C172.457 244.505 172.182 244.594 172.19 244.739Z" fill="#DBC2BC"/>
<path d="M177.419 231.939C176.857 230.013 151.693 226.561 149.007 230.013C146.321 233.474 137.103 260.341 139.025 267.634C140.94 274.926 148.239 276.081 148.239 276.081C148.239 276.081 161.677 248.829 169.74 249.592C177.806 250.364 182.879 238.077 182.879 238.077L177.419 231.939Z" fill="#E7D0CA"/>
<path d="M298.666 673.185V692.434C298.666 692.434 312.977 710.644 309.071 711.948C305.165 713.244 221.372 717.928 224.757 711.948C228.138 705.956 274.201 688.533 274.201 688.533L272.314 675.265L298.666 673.185Z" fill="#3F4748"/>
<path d="M381.526 249.592L382.16 249.123C381.772 249.099 381.381 249.071 380.977 249.042C381.336 249.402 381.526 249.592 381.526 249.592Z" fill="#2F4F9C"/>
<path d="M381.228 234.656L258.985 121.294C258.985 121.294 268.893 138.068 270.428 138.52C271.591 138.859 334.207 201.897 364.913 232.855C370.431 233.82 375.884 234.442 381.228 234.656Z" fill="#586465"/>
<path d="M382.205 249.119L390.376 243.066L381.264 234.619C375.92 234.405 370.467 233.783 364.95 232.818C373.266 241.213 379.244 247.246 381.022 249.039C381.426 249.067 381.817 249.095 382.205 249.119Z" fill="#9FB2B2"/>
<path d="M258.975 121.219L394.592 249.553L527.636 149.492C527.636 149.492 486.982 87.5963 432.383 62.7355C377.785 37.8747 259.007 80.5341 258.975 121.219Z" fill="#B4C9CA"/>
<path d="M519.36 129.795C519.36 129.795 535.949 149.997 534.132 149.537C532.318 149.064 392.153 256.273 390.117 254.787C388.081 253.297 373.063 234.537 373.063 234.537L519.36 129.795Z" fill="#9FB2B2"/>
<path d="M266.309 128.231C356.901 51.7261 448.769 71.5679 448.769 71.5679C359.659 40.0002 262.402 124.54 262.402 124.54L266.309 128.231Z" fill="#A3B6B7"/>
<path d="M413.262 104.709C412.248 104.446 357.634 143.432 357.634 143.432L406.561 146.444L413.262 104.709Z" fill="#A3B6B7"/>
<path d="M369.913 153.169C374.785 158.217 379.66 163.272 384.532 168.323C386.967 170.851 389.407 173.375 391.842 175.902C394.258 178.41 396.601 181.03 399.097 183.461L399.743 183.95L400.034 183.873C400.583 183.562 401.072 183.005 401.589 182.528C402.878 181.329 404.166 180.13 405.455 178.935C408.028 176.54 410.601 174.15 413.174 171.756C418.32 166.975 423.47 162.19 428.612 157.405C431.524 154.7 434.436 151.99 437.34 149.289C439.938 146.878 442.515 144.432 445.157 142.078C442.079 138.633 438.892 135.282 435.745 131.894C434.008 130.028 432.267 128.159 430.53 126.285C428.789 124.416 427.097 122.506 425.397 120.592C423.47 118.424 421.535 116.263 419.628 114.079C418.913 113.263 420.04 112.085 420.824 112.872C424.439 116.474 428.062 120.071 431.56 123.786C435.058 127.497 438.556 131.216 442.058 134.931C444.046 137.042 446.017 139.158 448.061 141.205C448.578 141.73 448.598 142.622 448.073 143.147C442.915 148.247 437.498 153.097 432.199 158.043C426.948 162.941 421.697 167.835 416.446 172.737C413.812 175.18 411.187 177.63 408.565 180.081L404.542 183.828C403.395 184.898 402.163 186.437 400.583 186.833C398.564 187.338 397.174 185.775 395.91 184.475C394.642 183.154 393.357 181.85 392.089 180.526C389.609 177.945 387.12 175.361 384.628 172.773C379.026 166.95 373.419 161.12 367.809 155.293C366.472 153.908 368.572 151.772 369.913 153.169Z" fill="#A3B6B7"/>
<path d="M407.088 148.821C407.415 148.345 407.774 147.965 408.275 147.666L409.018 147.327L409.414 147.218C409.992 147.121 410.505 147.085 411.087 147.239C411.624 147.38 412.136 147.658 412.528 148.058C412.9 148.429 413.223 148.938 413.328 149.455L413.417 150.311L413.296 151.095C413.231 151.555 413.098 152.003 412.84 152.391L412.306 153.053L411.628 153.562L410.844 153.893L410.226 153.994L409.955 154.006C409.353 153.966 408.748 153.828 408.251 153.477C407.766 153.126 407.322 152.722 407.055 152.177C406.789 151.652 406.587 151.058 406.619 150.461C406.651 149.887 406.765 149.306 407.088 148.821Z" fill="#A3B6B7"/>
<path d="M153.158 264.207C153.158 272.941 160.243 280.019 168.976 280.019C177.717 280.019 184.797 272.941 184.797 264.207C184.797 255.473 177.717 248.395 168.976 248.395C160.243 248.395 153.158 255.473 153.158 264.207Z" fill="#5F6B6C"/>
<path d="M158.119 264.179C158.119 270.191 162.994 275.061 169.005 275.061C175.023 275.061 179.899 270.191 179.899 264.179C179.899 258.167 175.023 253.293 169.005 253.293C162.994 253.293 158.119 258.167 158.119 264.179Z" fill="#475051"/>
<path d="M88.1578 628.187L98.1872 630.25L172.02 271.292L161.986 269.232L88.1578 628.187Z" fill="#475051"/>
<path d="M58.9527 740.25C65.5367 742.002 72.363 738.057 74.1161 731.48L103.594 621.09C105.351 614.504 101.405 607.688 94.8211 605.932C88.2412 604.176 81.4188 608.12 79.6618 614.698L50.1792 725.092C48.4222 731.674 52.3688 738.49 58.9527 740.25Z" fill="#8AB6C0"/>
<path d="M102.616 608.987C102.616 608.987 184.027 712.633 179.03 714.167C174.042 715.706 152.92 714.167 152.92 714.167L95.3207 642.384L102.616 608.987Z" fill="#8AB6C0"/>
<path d="M507.291 720.64C507.291 720.64 482.434 745.896 474.509 745.937C466.588 745.973 179.189 745.937 179.189 745.937L157.082 720.64H507.291Z" fill="#68A1A7"/>
<path d="M124.087 716.252V718.4C124.087 721.711 126.794 724.413 130.102 724.413H518.207C519.108 724.413 519.976 724.207 520.744 723.839C522.792 722.886 524.217 720.799 524.217 718.4V716.252C524.217 715.202 523.943 714.225 523.462 713.373L523.321 713.119L523.745 712.501C524.888 710.854 526.003 709.186 527.186 707.571C534.788 697.226 544.385 687.362 556.874 683.396C570.765 678.987 585.888 681.878 598.777 688.015C605.353 691.145 611.525 695.078 617.414 699.354C620.306 701.449 623.074 703.715 625.986 705.782C628.89 707.841 632.097 709.674 635.623 710.405C636.56 710.591 637.51 710.716 638.459 710.761C640.903 710.882 643.362 710.474 645.588 709.364C648.565 707.87 650.621 705.067 651.663 701.966C652.717 698.829 652.653 695.449 651.865 692.259C651.667 691.46 651.421 690.681 651.13 689.905C648.706 676.318 638.168 666.139 626.677 659.274C615.04 652.313 601.669 648.388 588.146 647.613C574.8 646.846 561.334 649.272 549.164 654.816C537.971 659.92 527.942 667.645 520.005 677.025C516.022 681.733 512.516 686.849 509.632 692.304C508.169 695.082 506.865 697.952 505.718 700.888C504.639 703.658 503.553 706.533 503.04 709.477L502.914 710.24H130.102C126.794 710.24 124.087 712.941 124.087 716.252Z" fill="#8AB6C0"/>
<path d="M0.000282288 733.516C0.000282288 765.104 25.6172 790.708 57.212 790.708C88.8148 790.708 114.431 765.104 114.431 733.516C114.431 701.924 88.8148 676.321 57.212 676.321C25.6172 676.321 0.000282288 701.924 0.000282288 733.516Z" fill="#475051"/>
<path d="M28.6532 733.486C28.6532 749.278 41.4619 762.086 57.2555 762.086C73.0571 762.086 85.8696 749.278 85.8696 733.486C85.8696 717.69 73.0571 704.882 57.2555 704.882C41.4619 704.882 28.6532 717.69 28.6532 733.486Z" fill="#68A1A7"/>
<path d="M83.9962 609.718L101.728 614.451C104.358 615.154 107.084 613.575 107.783 610.946C108.49 608.321 106.907 605.596 104.281 604.893L86.5448 600.161C83.9152 599.458 81.1927 601.037 80.4899 603.662C79.7951 606.29 81.3666 609.012 83.9962 609.718Z" fill="#91C6CE"/>
<path d="M164.115 260.887L164.075 260.963L164.083 260.947L164.115 260.887Z" fill="#2667AB"/>
</svg>
