<svg width="130" height="139" viewBox="0 0 130 139" fill="none" xmlns="http://www.w3.org/2000/svg">
<path d="M46.9653 20.3102C46.9653 20.3102 43.1813 18.3878 42.0045 18.9226C40.8284 19.4589 41.3217 20.3102 41.3217 20.3102L44.0923 21.8285L45.802 22.0652L46.9653 20.3102Z" fill="#9FB2B2"/>
<path d="M115.132 77.509C115.38 77.4815 120.922 76.8682 120.922 76.8682C120.922 76.8682 121.628 79.4689 121.214 79.5142C120.801 79.5601 115.488 80.7336 115.488 80.7336L115.132 77.509Z" fill="#E7D0CA"/>
<path d="M118.735 76.26L121.926 75.1754C121.926 75.1754 124.137 71.7798 124.573 72.3521C125.008 72.9258 130.506 86.5392 129.323 86.316C128.141 86.0927 122.658 79.4471 122.658 79.4471L120.565 80.5069L118.735 76.26Z" fill="#3F4748"/>
<path d="M51.1328 113.987C51.1328 114.237 51.1328 119.809 51.1328 119.809C51.1328 119.809 48.4697 120.225 48.4697 119.809C48.4697 119.394 47.888 113.987 47.888 113.987H51.1328Z" fill="#E7D0CA"/>
<path d="M43.1147 79.1581C43.0829 80.3832 47.8169 115.079 47.8169 115.079H50.9953C52.9955 107.799 53.2556 99.0674 53.1411 93.2251C53.0655 89.2968 52.8202 86.6727 52.8202 86.6727C53.7659 85.0625 54.6324 83.4043 55.4282 81.72C63.1893 65.2755 64.1123 46.3701 64.1123 46.3701L50.9953 50.463C50.9953 50.463 43.148 77.933 43.1147 79.1581Z" fill="#757C84"/>
<path d="M55.1571 50.6241C55.1571 50.6241 78.2059 82.5148 81.4571 85.755C84.7104 88.9951 115.687 81.4586 116.774 80.8064C117.86 80.1564 116.818 77.3098 116.536 76.9622C116.306 76.681 95.7107 76.7658 87.9234 76.8082C86.1056 76.8174 84.986 76.8251 84.986 76.8251C84.5577 74.6433 83.8813 72.4171 83.0423 70.2085C78.3988 57.9834 68.7824 46.3701 68.7824 46.3701L55.1571 50.6241Z" fill="#8F959C"/>
<path d="M34.676 18.6768C35.2499 19.0739 35.8054 20.1506 36.2733 21.2945C36.9299 22.8983 37.4147 24.635 37.5377 24.8215C37.7505 25.1387 45.8042 22.0674 45.8042 22.0674L39.1273 16.5409L37.8402 15.4769L36.5843 14.439L34.676 18.6768Z" fill="#E7D0CA"/>
<path d="M34.6742 18.6862C35.2467 19.0833 35.8029 20.16 36.2701 21.3039C36.7606 19.1772 38.3649 17.3296 39.124 16.5503L37.837 15.4863L36.1238 16.1561L35.4948 16.8598L34.6742 18.6862Z" fill="#D1BAB4"/>
<path d="M27.7899 12.6075L27.7906 12.6117C27.6033 9.78841 27.7843 7.10219 28.9568 6.17381C31.5005 4.1602 36.9045 5.11477 36.9045 5.11477C36.9045 5.11477 40.2504 8.446 39.3422 12.1058C39.3422 12.1058 40.8257 11.0467 40.7197 12.8477C40.6137 14.6486 38.6 14.9659 38.6 14.9659C38.6 14.9659 37.8586 18.9917 37.0105 19.3103C36.1631 19.6283 29.3816 22.4882 28.9568 20.4753C28.8282 19.8663 28.5455 18.4992 28.2833 16.8353V16.836C26.8408 16.5428 27.7935 12.6725 27.7899 12.6075Z" fill="#E7D0CA"/>
<path d="M30.6365 7.29857C30.8274 7.2583 31.0202 7.22226 31.2132 7.18976C31.11 7.19824 31.0076 7.20676 30.9044 7.2117C30.6563 7.22583 30.4082 7.23432 30.1608 7.24068C30.0025 7.3396 29.8477 7.44628 29.6979 7.55862C30.0047 7.45123 30.3192 7.3664 30.6365 7.29857ZM32.4748 6.54754C33.0579 6.46841 33.6431 6.36952 34.2163 6.23739C34.4962 6.1731 34.7746 6.09611 35.0439 5.99508C34.9082 6.01203 34.7725 6.02616 34.6368 6.03958C34.2368 6.07773 33.8339 6.10172 33.4339 6.14694C33.0338 6.19074 32.6345 6.26495 32.243 6.36387C31.9256 6.44441 31.6125 6.54541 31.3065 6.66552C31.6974 6.63797 32.0875 6.59911 32.4748 6.54754ZM26.5542 8.51527C26.7711 7.5021 27.3394 6.61395 28.095 5.91449C28.8654 5.19948 29.7877 4.66959 30.7354 4.2273C31.8083 3.72637 32.9681 3.27844 34.1718 3.3173C34.7435 3.33708 35.3062 3.46921 35.8228 3.7172C36.1338 3.86769 36.4405 4.07048 36.6858 4.32624C37.1056 4.20119 37.6152 4.28662 38.006 4.44347C38.623 4.69075 39.1694 5.11826 39.6139 5.61C40.4967 6.59208 41.0154 7.8857 41.0578 9.2062C41.0783 9.85833 40.9836 10.538 40.7398 11.1456C40.5857 11.5314 40.3716 11.8868 40.0225 12.1249C39.7136 12.3341 39.2824 12.4245 38.9255 12.2944C38.6647 12.2005 38.4697 12.0189 38.3326 11.7935L38.3262 11.9327C38.3029 12.3262 38.2485 12.7191 38.1665 13.1049C38.1347 13.2511 37.9389 13.3747 37.7933 13.3154C37.5473 13.2165 37.3862 13.0484 37.2901 12.8018C37.2166 12.6124 37.1989 12.3983 37.2031 12.1963C37.2073 11.9405 37.242 11.6847 37.2569 11.4289C37.2724 11.1499 37.2794 10.8701 37.2674 10.591C37.2455 10.0647 37.1218 9.56161 36.9027 9.08187C36.6758 8.58659 36.4024 8.11464 36.1974 7.60947C36.0822 7.32615 35.9995 7.03362 35.9599 6.73052C35.9408 6.58285 35.9246 6.42815 35.938 6.27907L35.9444 6.21828C35.7345 6.38714 35.5097 6.53481 35.2708 6.65986C34.7004 6.96438 34.0813 7.15798 33.4495 7.29222C32.0967 7.57696 30.6605 7.62363 29.3919 8.22065C29.0979 8.35913 28.8109 8.52229 28.5571 8.72295L28.5353 8.74206L28.4081 8.92504C27.9465 9.63369 27.6574 10.4384 27.6207 11.2608C27.6058 11.5787 27.2242 11.6593 27.0503 11.4156C26.4503 10.5783 26.3421 9.50229 26.5542 8.51527Z" fill="#5D6369"/>
<path d="M30.6743 13.6099L30.6786 13.4757L30.6977 13.3852L30.7471 13.3096L30.7571 13.3011L30.7676 13.2877L30.8369 13.2425L30.921 13.2241L31.0313 13.2538L31.1734 13.3902L31.2285 13.5823L31.2235 13.6565L31.208 13.7286L31.1776 13.8L31.1741 13.8042L31.1564 13.848L31.1239 13.889L31.0582 13.9328L31.0179 13.9441L31.0023 13.9511L30.9125 13.9716L30.8503 13.9631L30.7952 13.9391L30.7295 13.8798L30.6878 13.8L30.6743 13.6099Z" fill="#545454"/>
<path d="M37.2739 10.5752V11.1842C37.2739 11.1842 27.8907 13.0642 27.7586 12.1542C27.6271 11.245 27.7586 11.4887 27.7586 11.4887L37.2739 10.5752Z" fill="#D1BAB4"/>
<path d="M28.9065 8.45262C29.2775 7.76304 29.6896 7.09894 30.144 6.46094C31.0636 5.16941 32.1202 3.98308 33.3125 2.93954C33.574 2.70991 33.8448 2.48882 34.1155 2.27192C33.9352 2.3567 33.7557 2.44642 33.5783 2.54039L33.5401 2.58275C33.2941 2.8371 32.9641 2.97631 32.6361 3.0943C32.188 3.39033 31.7626 3.71814 31.3724 4.0813C31.0862 4.34837 30.8162 4.63243 30.5674 4.93342C30.3257 5.22097 30.1652 5.44281 29.9624 5.76428C29.7737 6.06526 29.6033 6.37827 29.4535 6.69974C29.298 7.03111 29.1963 7.29465 29.086 7.65639C28.9984 7.94677 28.9284 8.22653 28.8775 8.50561L28.9065 8.45262ZM30.5956 7.4091V7.40765L30.6048 7.39634L30.7731 7.21405C31.2572 6.69475 31.7597 6.19316 32.2785 5.7106C32.8574 5.17152 33.4574 4.65362 34.0758 4.15975C34.3995 3.90045 34.7282 3.6489 35.0611 3.40444C35.2343 3.27868 35.4081 3.15293 35.5848 3.02999L35.647 2.98549C35.5862 2.82793 35.5714 2.65698 35.5841 2.48388C35.589 2.39274 35.6032 2.30083 35.6216 2.20968L35.6534 2.0592C35.4187 2.25632 35.1572 2.42451 34.912 2.60821C34.5953 2.8449 34.3437 3.04693 34.054 3.2928C33.468 3.79091 32.9132 4.32368 32.3852 4.88326C31.3555 5.97555 30.4776 7.14906 29.7093 8.43212C29.9942 8.08239 30.291 7.74188 30.5956 7.4091ZM31.7322 9.12734C31.8396 9.03832 31.9492 8.95426 32.0573 8.87019C32.2531 8.7197 32.4517 8.57485 32.6552 8.43495C33.0574 8.16153 33.475 7.91215 33.9062 7.68889C34.0638 7.60481 34.2242 7.52779 34.3861 7.45078C34.7925 7.14626 35.194 6.83398 35.5884 6.51462C35.9771 6.20022 36.3877 5.89001 36.7418 5.53604L36.7552 5.52196L36.7411 5.44848C36.7164 5.30788 36.7163 5.1524 36.7559 5.01463L36.7001 4.99765L36.6527 4.98848L36.628 4.98641L36.534 4.98992C36.4563 4.99416 36.3291 5.03516 36.2273 5.07472C36.0393 5.14891 35.8025 5.29582 35.6053 5.41522C34.7515 5.92746 33.9635 6.53721 33.2185 7.1957C32.8093 7.55815 32.3987 7.93331 32.0255 8.33532C31.8806 8.49076 31.7428 8.67303 31.7081 8.88923C31.6975 8.95847 31.7025 9.04678 31.7265 9.13086L31.7322 9.12734ZM35.5891 8.71122C36.2923 8.45263 36.9948 8.19193 37.6981 7.92769L37.8939 7.83792C38.3427 7.62879 38.7915 7.41261 39.2318 7.18369L39.3604 7.11166L39.3858 7.09537L39.4057 7.08054L39.4099 7.07205L39.4063 7.07419L39.4198 7.05653L39.4212 7.0537L39.4099 7.01692L39.4085 7.01271L39.4063 7.01058C38.6826 7.03672 37.9681 7.12859 37.2648 7.28332C37.1263 7.32854 36.9885 7.37584 36.8528 7.42601C36.0103 7.73264 35.2074 8.10851 34.4314 8.56563C33.8363 8.91607 33.2744 9.31109 32.7231 9.72299C33.685 9.40435 34.6391 9.05883 35.5891 8.71122ZM35.9008 9.53787C36.4754 9.41706 37.0521 9.29904 37.6288 9.17964C37.8734 9.12877 38.1193 9.07928 38.3638 9.02771C39.1045 8.8751 39.8912 8.74157 40.5195 8.312C40.7591 8.14879 40.9747 7.90649 41.1274 7.63024C41.2186 7.4635 41.2906 7.2607 41.3111 7.05439L41.1041 7.20632C40.8228 7.40415 40.5195 7.56947 40.2078 7.7129C39.6311 7.97855 39.0367 8.20252 38.448 8.43709C38.3632 8.46959 38.2784 8.50281 38.1943 8.53672C37.4203 8.89705 36.6379 9.23408 35.8463 9.54919L35.9008 9.53787ZM24.0474 9.4962C24.1054 9.09913 24.2382 8.719 24.3838 8.34595L24.4022 8.29792C24.5541 7.91852 24.7252 7.54618 24.9209 7.18514L25.0185 7.01271L25.1161 6.84105L25.1203 6.83608C25.8928 5.53607 26.9367 4.41126 28.1354 3.49207C29.6133 2.35879 31.3392 1.5611 33.1195 1.03756C33.5655 0.906852 34.0151 0.790992 34.4674 0.69561C34.9346 0.596696 35.4272 0.544423 35.864 0.777579C36.2612 0.992364 36.4944 1.40427 36.4527 1.85504C36.4343 2.05145 36.3877 2.23868 36.351 2.43227L36.341 2.48388L36.3361 2.52272L36.3326 2.59124L36.3382 2.66403L36.3474 2.68873L36.5177 2.78767L36.5404 2.78905L36.5771 2.78415L36.7799 2.72406L36.7807 2.72337L36.8231 2.70143L36.9206 2.64209L36.9764 2.60255L37.0493 2.53473C37.1821 2.39554 37.2988 2.24011 37.4196 2.09315C37.6953 1.76037 38.026 1.4615 38.467 1.39296C38.9024 1.32655 39.3321 1.47425 39.6975 1.70669C40.6863 2.33763 41.4093 3.33807 41.8129 4.44167C41.9013 4.6826 41.9741 4.92845 42.0306 5.17573L42.1303 5.32836L42.1352 5.34816C42.1889 5.38207 42.2292 5.4414 42.2321 5.52265C42.2342 5.60461 42.2285 5.6823 42.2172 5.75931L42.2306 5.83776C42.2681 6.03912 42.2971 6.23554 42.3133 6.42631C42.3409 6.79724 42.3374 7.16602 42.2886 7.53413C42.1868 8.30283 41.7981 8.99879 41.1302 9.41423C40.7542 9.65092 40.3238 9.79573 39.9025 9.93067C39.465 10.0706 39.0247 10.2048 38.5844 10.3362L38.5505 10.3454C37.6776 10.604 36.7976 10.8435 35.9106 11.0541C34.1076 11.483 32.2701 11.8023 30.4197 11.9393C29.508 12.0086 28.5912 12.0319 27.6767 11.9994C27.218 11.9846 26.7607 11.9556 26.3041 11.9104C25.8843 11.8716 25.468 11.8228 25.0729 11.6617C24.6764 11.5006 24.3506 11.206 24.1753 10.8125C23.9894 10.3942 23.9817 9.94343 24.0474 9.4962ZM30.7731 7.21405C31.2572 6.69475 31.7597 6.19316 32.2785 5.7106L30.6048 7.39634L30.7731 7.21405Z" fill="#757C84"/>
<path d="M40.2848 5.94101C41.0884 6.03357 41.7923 5.94033 42.2433 5.84565L42.2298 5.76582C42.2404 5.6888 42.2468 5.61102 42.244 5.52977C42.2418 5.44851 42.2009 5.38846 42.1464 5.35595L42.1415 5.33546L42.0432 5.1829C41.986 4.93419 41.9125 4.68896 41.8249 4.44873C40.9237 4.89811 39.2395 5.82089 40.2848 5.94101Z" fill="#757C84"/>
<path d="M24.518 7.70334L24.5762 7.61816L24.518 7.70334Z" fill="#F1862B"/>
<path d="M24.1954 10.8325C24.37 11.2268 24.6972 11.5207 25.0937 11.6825C25.4881 11.8436 25.9051 11.8916 26.3249 11.9312C26.7815 11.9757 27.2381 12.0047 27.6975 12.0209C28.6114 12.052 29.5274 12.0287 30.4405 11.9601C32.2909 11.8224 34.1271 11.503 35.9322 11.0748C36.8185 10.8636 37.6984 10.6255 38.5713 10.3655C38.061 9.70982 27.9951 11.5115 25.9786 10.8149C24.6181 10.345 24.3707 9.1566 24.4039 8.3667C24.259 8.73904 24.124 9.11988 24.0682 9.51695C24.0032 9.96348 24.0102 10.415 24.1954 10.8325Z" fill="#878F98"/>
<path d="M37.2107 5.66233C37.4863 5.35004 37.0785 5.39598 36.7562 5.46452L36.7711 5.53869L36.7584 5.55352C36.4043 5.90679 35.9936 6.21698 35.6049 6.52998C35.2098 6.85074 34.8091 7.163 34.402 7.46751C34.2401 7.54382 34.0797 7.62156 33.9221 7.70494C33.4909 7.92891 33.0739 8.17763 32.6717 8.45176C32.4682 8.59166 32.2696 8.73649 32.0738 8.88769C31.9657 8.97036 31.8547 9.05444 31.7473 9.14347C31.6632 9.26499 31.5988 9.3893 31.5677 9.51295C31.4108 10.1192 36.7972 6.13147 37.2107 5.66233Z" fill="#757C84"/>
<path d="M37.6429 9.18692L37.8019 9.4589C41.2715 9.63483 41.61 7.75903 41.5485 7.18816C41.5174 6.89637 41.3125 7.02138 41.1181 7.21355L41.3258 7.06238C41.3054 7.26727 41.2333 7.47074 41.1407 7.63678C40.9895 7.91373 40.7739 8.15608 40.5336 8.31929C39.9052 8.74815 39.1186 8.88236 38.3786 9.03568C38.1341 9.08655 37.8881 9.13676 37.6429 9.18692Z" fill="#757C84"/>
<path d="M30.604 7.41072C30.6351 7.51882 35.8935 3.14111 35.8935 3.14111C35.8935 3.14111 36.2044 2.92563 36.0348 2.48405C35.9705 2.31802 35.7917 2.36327 35.5924 2.4855C35.5797 2.6586 35.5946 2.82955 35.6553 2.98711L35.5931 3.03161C35.4164 3.15455 35.2426 3.2803 35.0694 3.40606C34.7365 3.65052 34.4079 3.90207 34.0842 4.16137C33.4657 4.65523 32.8657 5.17313 32.2869 5.71222L30.6132 7.39795L30.604 7.40927V7.41072Z" fill="#757C84"/>
<path d="M37.9726 29.3842C40.4223 35.7204 46.1769 46.8666 46.1769 46.8666C46.1769 46.8666 46.1274 50.7045 46.8285 53.5151C47.249 55.2016 55.4604 53.0636 62.0998 50.9963C66.5299 49.615 70.2617 48.2655 70.514 48.1002C71.1452 47.689 61.1238 33.0207 56.3587 27.9492C51.5937 22.877 43.1781 19.7768 42.9745 19.7238C41.1532 19.2441 37.2814 21.4053 37.2814 21.4053C37.2814 21.4053 36.887 22.3479 36.892 25.6191C36.8934 26.315 37.3125 27.6744 37.9726 29.3842Z" fill="#475051"/>
<path d="M48.4923 54.1008C50.2896 54.1008 53.3224 53.4544 56.5707 52.5846C58.4062 52.0929 60.3096 51.5312 62.0991 50.9737C62.0595 50.2601 61.562 49.6355 59.9421 49.6355C59.6056 49.6355 59.2211 49.6631 58.7829 49.7218C58.3313 49.7818 57.8896 49.8093 57.4606 49.8093C52.7824 49.8093 49.4952 46.4887 48.8386 45.4225C48.5071 44.8841 46.3119 40.2486 43.9809 35.7389C43.1208 34.9659 42.3037 34.123 41.5475 33.2038L42.1532 32.2959C40.4591 29.2119 38.9409 26.8062 38.3055 26.8062C38.1698 26.8062 38.0751 26.9164 38.0264 27.1531C37.9119 27.7183 37.904 28.4772 37.9719 29.3617C40.4216 35.6979 46.1762 46.8441 46.1762 46.8441C46.1762 46.8455 46.1755 46.9027 46.1755 47.0045C46.1755 47.7591 46.2115 51.0225 46.8278 53.4925C46.9345 53.92 47.5403 54.1008 48.4923 54.1008Z" fill="#3F4748"/>
<path d="M49.907 84.6798C50.0059 85.0239 51.9107 89.6319 53.1313 93.2302C53.0557 89.3019 52.8104 86.6779 52.8104 86.6779C53.7561 85.0677 54.6226 83.4095 55.4185 81.7251C54.1618 83.1353 52.6408 84.6438 51.8563 84.6798C50.3777 84.747 49.7734 84.2093 49.907 84.6798Z" fill="#889099"/>
<path d="M83.5048 79.3091C83.7572 78.7241 86.103 77.5866 87.9116 76.8137C86.0938 76.8229 84.9742 76.8306 84.9742 76.8306C84.5459 74.6488 83.8695 72.4225 83.0306 70.2153C83.7649 74.5577 83.1027 80.246 83.5048 79.3091Z" fill="#A8AEB4"/>
<path d="M42.7325 31.4409C42.7325 31.4409 56.3189 41.4298 67.0245 41.6672C67.1319 41.6701 67.24 41.6708 67.3475 41.6722L69.0508 44.2772C69.0508 44.2772 50.8399 44.4835 41.555 33.2052L42.7325 31.4409Z" fill="#9FB2B2"/>
<path d="M29.6325 40.0193C29.6382 40.0963 29.6445 40.1698 29.6516 40.2369C29.6777 40.4849 29.7117 40.6509 29.7117 40.6509C29.7117 40.6509 30.405 40.9505 31.5295 41.4104L31.5337 41.4119C34.9842 42.8228 42.4789 45.7344 46.3917 46.118C47.714 46.2473 48.23 45.0646 48.2653 43.2284C48.3706 37.8538 43.7511 27.7949 43.7511 27.7949L40.1981 28.7071L40.3529 39.5304C40.3529 39.5304 31.5528 37.7139 30.4022 38.0467C29.6473 38.2657 29.5852 39.3199 29.6325 40.0193Z" fill="#DBC6C0"/>
<path d="M29.4894 40.0239C29.4852 40.062 29.5424 40.1285 29.6533 40.2217C29.9438 40.4634 30.6103 40.8781 31.5313 41.3952L31.5355 41.3967C34.986 42.8076 42.4807 45.7192 46.3934 46.1028C47.7158 46.2321 48.2318 45.0494 48.2671 43.2132C44.9848 45.267 31.2012 40.1843 29.6343 40.0041C29.5431 39.9921 29.4922 39.9998 29.4894 40.0239Z" fill="#D1B9B3"/>
<path d="M30.7918 38.001C30.7557 37.6527 26.5377 36.2537 25.9652 36.7617C25.392 37.2704 22.9466 41.5993 23.0441 42.9148C23.1417 44.2311 24.3595 44.6621 24.3595 44.6621C24.3595 44.6621 27.5434 40.4031 28.9061 40.7924C30.2687 41.1831 31.5332 39.2317 31.5332 39.2317L30.7918 38.001Z" fill="#DBC6C0"/>
<path d="M30.2685 43.3972L30.3272 43.6092C30.3993 43.848 30.4614 44.0056 30.4614 44.0056C30.4614 44.0056 31.1986 44.1723 32.3874 44.4188L32.3917 44.4195C36.0429 45.1762 43.9432 46.6712 47.8601 46.3328C49.1832 46.2198 49.4751 44.9622 49.1748 43.1499C48.2955 37.8474 42.3409 27.7949 42.3409 27.7949L38.5894 30.3469L40.7189 40.9597C40.7189 40.9597 31.735 40.781 30.665 41.3179C29.9625 41.6712 30.0947 42.7196 30.2685 43.3972Z" fill="#E7D0CA"/>
<path d="M47.791 38.6304H40.2596L40.102 37.9373L47.0482 36.874L47.791 38.6304Z" fill="#DBC2BC"/>
<path d="M37.2131 38.8009C37.2131 38.8009 36.1027 23.72 38.4951 23.26C40.8869 22.8001 48.096 30.8588 49.2827 37.1377L37.2131 38.8009Z" fill="#475051"/>
<path d="M30.1293 43.4357C30.1321 43.4732 30.2 43.529 30.3272 43.6004C30.6565 43.7841 31.388 44.0709 32.3874 44.41L32.3917 44.4107C36.0429 45.1674 43.9432 46.6624 47.8601 46.324C49.1832 46.211 49.4751 44.9534 49.1748 43.1411C46.3229 45.7609 31.8418 43.281 30.2685 43.3884C30.1759 43.3948 30.1279 43.4103 30.1293 43.4357Z" fill="#DBC2BC"/>
<path d="M31.045 41.1955C30.9467 40.8585 26.5435 40.2544 26.0735 40.8585C25.6035 41.464 23.9906 46.1653 24.327 47.4412C24.662 48.7172 25.9392 48.9193 25.9392 48.9193C25.9392 48.9193 28.2906 44.1509 29.7013 44.2844C31.1128 44.4194 32.0005 42.2694 32.0005 42.2694L31.045 41.1955Z" fill="#E7D0CA"/>
<path d="M52.2594 118.404V121.772C52.2594 121.772 54.7635 124.959 54.0801 125.187C53.3966 125.414 38.7346 126.233 39.3269 125.187C39.9184 124.138 47.9785 121.09 47.9785 121.09L47.6484 118.768L52.2594 118.404Z" fill="#3F4748"/>
<path d="M66.7587 44.2851L66.8696 44.2031C66.8018 44.1989 66.7333 44.1939 66.6626 44.189C66.7255 44.2518 66.7587 44.2851 66.7587 44.2851Z" fill="#2F4F9C"/>
<path d="M66.7061 41.6718L45.3162 21.8359C45.3162 21.8359 47.0499 24.7709 47.3185 24.85C47.5221 24.9094 58.4785 35.9397 63.8514 41.3567C64.8169 41.5255 65.771 41.6343 66.7061 41.6718Z" fill="#586465"/>
<path d="M66.8773 44.2024L68.3071 43.1433L66.7126 41.6652C65.7776 41.6278 64.8234 41.519 63.858 41.3501C65.3132 42.819 66.3593 43.8746 66.6702 44.1883C66.7409 44.1932 66.8094 44.1982 66.8773 44.2024Z" fill="#9FB2B2"/>
<path d="M45.3149 21.8223L69.0449 44.2778L92.3247 26.7694C92.3247 26.7694 85.211 15.939 75.6575 11.5889C66.1041 7.23882 45.3205 14.7033 45.3149 21.8223Z" fill="#B4C9CA"/>
<path d="M90.8768 23.3232C90.8768 23.3232 93.7795 26.8581 93.4615 26.7775C93.1441 26.6949 68.6183 45.454 68.2621 45.194C67.9058 44.9333 65.278 41.6507 65.278 41.6507L90.8768 23.3232Z" fill="#9FB2B2"/>
<path d="M46.5984 23.0493C62.45 9.66272 78.5249 13.1346 78.5249 13.1346C62.9327 7.61095 45.9149 22.4036 45.9149 22.4036L46.5984 23.0493Z" fill="#A3B6B7"/>
<path d="M72.3115 18.9333C72.1341 18.8874 62.5778 25.709 62.5778 25.709L71.139 26.2361L72.3115 18.9333Z" fill="#A3B6B7"/>
<path d="M64.7267 27.413C65.5791 28.2962 66.4322 29.1808 67.2846 30.0646C67.7107 30.5069 68.1376 30.9485 68.5638 31.3908C68.9865 31.8295 69.3964 32.288 69.8332 32.7134L69.9463 32.7989L69.9972 32.7855C70.0933 32.7311 70.1788 32.6336 70.2693 32.5502C70.4947 32.3404 70.7202 32.1305 70.9457 31.9214C71.3959 31.5024 71.8461 31.0842 72.2963 30.6652C73.1968 29.8287 74.0979 28.9914 74.9976 28.1542C75.5072 27.6808 76.0168 27.2067 76.525 26.734C76.9794 26.3122 77.4304 25.8841 77.8926 25.4722C77.354 24.8695 76.7964 24.283 76.2458 23.6903C75.9419 23.3638 75.6373 23.0367 75.3334 22.7089C75.0287 22.3818 74.7326 22.0476 74.435 21.7127C74.0979 21.3333 73.7593 20.9553 73.4257 20.573C73.3006 20.4303 73.4978 20.2241 73.635 20.3618C74.2675 20.9921 74.9015 21.6215 75.5136 22.2715C76.1256 22.9208 76.7377 23.5716 77.3505 24.2216C77.6983 24.5911 78.0431 24.9613 78.4007 25.3196C78.4912 25.4114 78.4948 25.5675 78.4029 25.6594C77.5003 26.5517 76.5526 27.4003 75.6253 28.2658C74.7064 29.1228 73.7876 29.9791 72.8688 30.8369C72.408 31.2643 71.9486 31.6931 71.4899 32.122L70.786 32.7777C70.5852 32.9649 70.3696 33.2341 70.0933 33.3034C69.7399 33.3917 69.4968 33.1183 69.2756 32.8908C69.0536 32.6597 68.8289 32.4315 68.6069 32.1998C68.173 31.7483 67.7376 31.2961 67.3015 30.8432C66.3212 29.8244 65.3402 28.8041 64.3585 27.7846C64.1245 27.5423 64.492 27.1685 64.7267 27.413Z" fill="#A3B6B7"/>
<path d="M71.2314 26.6521C71.2886 26.5688 71.3515 26.5023 71.4392 26.45L71.5692 26.3907L71.6385 26.3716C71.7395 26.3546 71.8293 26.3483 71.9311 26.3752C72.0251 26.3999 72.1148 26.4486 72.1834 26.5186C72.2484 26.5836 72.305 26.6726 72.3233 26.763L72.3389 26.9128L72.3177 27.0499C72.3064 27.1305 72.2831 27.2089 72.2378 27.2767L72.1445 27.3926L72.0258 27.4816L71.8886 27.5395L71.7806 27.5572L71.7331 27.5594C71.6278 27.5523 71.5218 27.5282 71.4349 27.4668C71.3501 27.4053 71.2724 27.3346 71.2257 27.2393C71.1791 27.1474 71.1437 27.0435 71.1494 26.939C71.155 26.8386 71.1748 26.7369 71.2314 26.6521Z" fill="#A3B6B7"/>
<path d="M26.7993 46.8425C26.7993 48.3707 28.039 49.6093 29.567 49.6093C31.0965 49.6093 32.3354 48.3707 32.3354 46.8425C32.3354 45.3142 31.0965 44.0757 29.567 44.0757C28.039 44.0757 26.7993 45.3142 26.7993 46.8425Z" fill="#5F6B6C"/>
<path d="M27.6675 46.8369C27.6675 47.8889 28.5206 48.741 29.5723 48.741C30.6254 48.741 31.4785 47.8889 31.4785 46.8369C31.4785 45.7849 30.6254 44.9321 29.5723 44.9321C28.5206 44.9321 27.6675 45.7849 27.6675 46.8369Z" fill="#475051"/>
<path d="M15.4256 110.531L17.1805 110.892L30.0996 48.0821L28.3439 47.7217L15.4256 110.531Z" fill="#475051"/>
<path d="M10.3148 130.14C11.4668 130.446 12.6613 129.756 12.968 128.605L18.1261 109.289C18.4335 108.137 17.743 106.944 16.591 106.637C15.4396 106.33 14.2459 107.02 13.9384 108.171L8.77962 127.487C8.47218 128.639 9.16275 129.832 10.3148 130.14Z" fill="#8AB6C0"/>
<path d="M17.9558 107.172C17.9558 107.172 32.2009 125.308 31.3266 125.576C30.4537 125.845 26.7579 125.576 26.7579 125.576L16.6793 113.016L17.9558 107.172Z" fill="#8AB6C0"/>
<path d="M88.7642 126.708C88.7642 126.708 84.4146 131.127 83.0279 131.134C81.642 131.141 31.3534 131.134 31.3534 131.134L27.4852 126.708H88.7642Z" fill="#68A1A7"/>
<path d="M21.7122 125.94V126.316C21.7122 126.896 22.1858 127.368 22.7646 127.368H90.6745C90.8321 127.368 90.9841 127.332 91.1184 127.268C91.4767 127.101 91.7262 126.736 91.7262 126.316V125.94C91.7262 125.757 91.6781 125.586 91.594 125.437L91.5693 125.392L91.6435 125.284C91.8435 124.996 92.0385 124.704 92.2456 124.421C93.5758 122.611 95.2551 120.885 97.4404 120.191C99.871 119.42 102.517 119.926 104.773 121C105.923 121.547 107.003 122.235 108.034 122.983C108.54 123.35 109.024 123.747 109.533 124.108C110.042 124.469 110.603 124.789 111.22 124.917C111.384 124.95 111.55 124.972 111.716 124.979C112.144 125.001 112.574 124.929 112.963 124.735C113.484 124.474 113.844 123.983 114.026 123.441C114.211 122.892 114.2 122.3 114.062 121.742C114.027 121.602 113.984 121.466 113.933 121.33C113.509 118.953 111.665 117.172 109.654 115.97C107.618 114.752 105.279 114.066 102.912 113.93C100.577 113.796 98.2207 114.22 96.0912 115.19C94.1327 116.083 92.3778 117.435 90.989 119.076C90.2921 119.9 89.6786 120.795 89.174 121.75C88.9181 122.236 88.6899 122.738 88.4891 123.252C88.3004 123.737 88.1103 124.24 88.0206 124.755L87.9986 124.888H22.7646C22.1858 124.888 21.7122 125.361 21.7122 125.94Z" fill="#8AB6C0"/>
<path d="M4.57764e-05 128.961C4.57764e-05 134.488 4.48245 138.968 10.0108 138.968C15.5406 138.968 20.0229 134.488 20.0229 128.961C20.0229 123.433 15.5406 118.953 10.0108 118.953C4.48245 118.953 4.57764e-05 123.433 4.57764e-05 128.961Z" fill="#475051"/>
<path d="M5.01376 128.956C5.01376 131.719 7.25501 133.961 10.0185 133.961C12.7835 133.961 15.0254 131.719 15.0254 128.956C15.0254 126.192 12.7835 123.951 10.0185 123.951C7.25501 123.951 5.01376 126.192 5.01376 128.956Z" fill="#68A1A7"/>
<path d="M14.698 107.299L17.8007 108.127C18.2608 108.25 18.7379 107.974 18.8602 107.514C18.9838 107.055 18.7068 106.578 18.2474 106.455L15.1439 105.627C14.6838 105.504 14.2074 105.78 14.0844 106.239C13.9629 106.699 14.2378 107.176 14.698 107.299Z" fill="#91C6CE"/>
<path d="M28.7168 46.2617L28.7093 46.276L28.7108 46.273L28.7168 46.2617Z" fill="#2667AB"/>
<path d="M91.6462 125.294C91.8462 125.006 92.0413 124.714 92.2483 124.432C93.5785 122.622 95.2578 120.895 97.4432 120.202C99.8738 119.43 102.52 119.936 104.775 121.01C105.926 121.557 107.006 122.246 108.036 122.994C108.542 123.361 109.027 123.757 109.536 124.119C110.044 124.479 110.606 124.8 111.223 124.928C111.386 124.96 111.553 124.982 111.719 124.99C111.893 124.074 111.613 122.677 109.423 121.065C105.525 118.199 95.6162 115.366 93.252 121.065C92.4668 122.961 91.9643 124.321 91.6462 125.294Z" fill="#7AA9B0"/>
<path d="M91.1144 127.274C91.4727 127.108 91.7222 126.742 91.7222 126.323V125.947C91.7222 125.763 91.6741 125.592 91.59 125.443C91.2797 126.407 91.1603 126.964 91.1144 127.274Z" fill="#7AA9B0"/>
<path d="M90.6368 128.993C90.6368 134.52 95.1184 139 100.647 139C106.177 139 110.66 134.52 110.66 128.993C110.66 123.465 106.177 118.985 100.647 118.985C95.1184 118.985 90.6368 123.465 90.6368 128.993Z" fill="#393C4D"/>
<path d="M95.6506 129.009C95.6506 131.773 97.8918 134.014 100.656 134.014C103.421 134.014 105.662 131.773 105.662 129.009C105.662 126.245 103.421 124.005 100.656 124.005C97.8918 124.005 95.6506 126.245 95.6506 129.009Z" fill="#68A1A7"/>
</svg>
