<svg width="164" height="173" viewBox="0 0 164 173" fill="none" xmlns="http://www.w3.org/2000/svg">
<path d="M42.7456 71.6057L41.9452 76.9236L39.0305 78.1169L37.7542 72.6195L42.7456 71.6057Z" fill="#393C4D"/>
<path d="M99.8278 146.36C99.8278 146.36 102.831 149.93 102.077 150.495C101.325 151.058 94.764 156.026 93.0476 156.139C91.3321 156.25 86.845 155.099 87.1365 154.582C87.4272 154.065 89.1747 153.039 90.2667 152.919C91.3596 152.798 92.8211 152.333 92.8211 152.333L97.9363 147.106L97.8162 146.447L99.8278 146.36Z" fill="#9FB2B2"/>
<path d="M116.672 60.9314C116.672 60.9314 98.1141 102.555 98.0609 103.114C98.0086 103.67 102.27 146.946 99.5463 148.504C96.8195 150.062 97.1761 148.281 97.1761 148.281L85.3009 93.0957L97.883 65.8578L116.672 60.9314Z" fill="#757C84"/>
<path d="M131.588 170.088L137.081 114.463L136.353 114.391L130.86 170.017L131.588 170.088Z" fill="#CBCAC9"/>
<path d="M144.753 168.179L145.429 167.898L124.038 116.256L123.362 116.537L144.753 168.179Z" fill="#CBCAC9"/>
<path d="M160.209 148.979L160.397 148.273L106.363 133.898L106.175 134.605L160.209 148.979Z" fill="#CBCAC9"/>
<path d="M109.813 158.447L155.81 126.665L155.393 126.064L109.397 157.846L109.813 158.447Z" fill="#CBCAC9"/>
<path d="M152.482 162.365L153.023 161.872L115.414 120.511L114.873 121.003L152.482 162.365Z" fill="#CBCAC9"/>
<path d="M104.911 146.169L160.368 139.034L160.275 138.31L104.817 145.444L104.911 146.169Z" fill="#CBCAC9"/>
<path d="M119.056 165.854L149.508 118.976L148.894 118.577L118.442 165.456L119.056 165.854Z" fill="#CBCAC9"/>
<path d="M133.012 115.007C147.589 114.845 159.578 126.565 159.742 141.134C159.904 155.705 148.18 167.689 133.605 167.853C119.03 168.017 107.039 156.296 106.877 141.725C106.714 127.156 118.439 115.171 133.012 115.007ZM133.643 171.298C141.625 171.208 149.092 168.018 154.673 162.313C160.253 156.609 163.276 149.074 163.187 141.097C163.098 133.118 159.907 125.653 154.2 120.075C148.494 114.496 140.955 111.474 132.975 111.563C124.994 111.653 117.526 114.842 111.946 120.546C106.366 126.251 103.342 133.786 103.431 141.764C103.521 149.742 106.712 157.208 112.419 162.787C118.125 168.365 125.663 171.388 133.643 171.298Z" fill="#393C4D"/>
<path d="M28.1599 171.484L33.6528 115.86L32.9248 115.786L27.4328 171.413L28.1599 171.484Z" fill="#CBCAC9"/>
<path d="M41.356 169.606L42.0308 169.327L20.6412 117.681L19.9655 117.962L41.356 169.606Z" fill="#CBCAC9"/>
<path d="M56.816 150.381L57.0039 149.674L2.97023 135.299L2.78135 136.005L56.816 150.381Z" fill="#CBCAC9"/>
<path d="M6.41558 159.837L52.4111 128.055L51.9958 127.455L6.00021 159.237L6.41558 159.837Z" fill="#CBCAC9"/>
<path d="M49.0792 163.76L49.6201 163.269L12.0112 121.907L11.4684 122.399L49.0792 163.76Z" fill="#CBCAC9"/>
<path d="M1.50633 147.593L56.9648 140.459L56.8713 139.735L1.41281 146.868L1.50633 147.593Z" fill="#CBCAC9"/>
<path d="M15.6234 167.285L46.0752 120.407L45.4618 120.007L15.009 166.887L15.6234 167.285Z" fill="#CBCAC9"/>
<path d="M29.5839 116.433C44.1593 116.269 56.1482 127.989 56.3114 142.56C56.4755 157.128 44.7507 169.114 30.1753 169.278C15.6008 169.44 3.6109 157.72 3.4477 143.151C3.28449 128.581 15.0094 116.595 29.5839 116.433ZM30.2138 172.722C38.1942 172.634 45.6639 169.442 51.2439 163.739C56.824 158.034 59.8478 150.499 59.7588 142.521C59.669 134.542 56.4765 127.077 50.7708 121.499C45.0642 115.921 37.5258 112.898 29.5454 112.988C21.565 113.077 14.0962 116.267 8.51705 121.972C2.93517 127.676 -0.0886612 135.212 0.00210571 143.189C0.0910454 151.167 3.28357 158.632 8.98923 164.211C14.6949 169.79 22.2334 172.812 30.2138 172.722Z" fill="#393C4D"/>
<path d="M74.6412 146.818C74.709 152.933 79.7243 157.834 85.8407 157.765C91.9571 157.698 96.8605 152.686 96.7918 146.57C96.7239 140.456 91.7087 135.554 85.5922 135.623C79.4758 135.691 74.5724 140.704 74.6412 146.818Z" fill="#C5E5EB"/>
<path d="M126.989 141.483C126.592 144.978 129.103 148.134 132.6 148.53C136.096 148.927 139.252 146.415 139.649 142.92C140.046 139.425 137.534 136.272 134.037 135.874C130.542 135.477 127.386 137.988 126.989 141.483Z" fill="#C5E5EB"/>
<path d="M129.331 141.851C129.082 144.043 130.659 146.023 132.852 146.271C135.046 146.52 137.025 144.944 137.275 142.752C137.524 140.558 135.947 138.58 133.754 138.331C131.56 138.082 129.58 139.657 129.331 141.851Z" fill="#8AB6C0"/>
<path d="M24.2078 142.134C23.8108 145.629 26.323 148.784 29.8199 149.181C33.315 149.577 36.4718 147.067 36.8679 143.571C37.2649 140.077 34.7527 136.921 31.2567 136.525C27.7607 136.128 24.6048 138.639 24.2078 142.134Z" fill="#C5E5EB"/>
<path d="M26.5742 142.493C26.3248 144.685 27.9019 146.664 30.095 146.913C32.2891 147.162 34.2695 145.587 34.518 143.394C34.7674 141.201 33.1904 139.222 30.9972 138.972C28.8032 138.724 26.8227 140.299 26.5742 142.493Z" fill="#8AB6C0"/>
<path d="M77.4049 146.803C77.4553 151.404 81.2291 155.091 85.8299 155.04C90.4326 154.988 94.122 151.217 94.0698 146.617C94.0184 142.016 90.2455 138.329 85.6438 138.379C81.042 138.43 77.3526 142.202 77.4049 146.803Z" fill="#A1D2D8"/>
<path d="M44.5449 70.3343L45.128 73.0024C45.128 73.0024 74.3669 67.856 76.9433 65.3153C79.5224 62.7747 67.6371 38.0994 67.6371 38.0994L61.2291 45.2026C61.2254 45.5096 63.6358 51.437 65.4806 55.9272C66.3617 58.0682 67.1145 59.8848 67.4124 60.6061C67.5041 60.8224 67.5518 60.9416 67.5518 60.9416L68.4164 60.7683C68.0029 60.8774 65.1313 62.0094 61.5133 63.4593C54.4488 66.2905 44.5449 70.3343 44.5449 70.3343Z" fill="#E2C8C1"/>
<path d="M68.4144 60.7684C68.0009 60.8775 65.1292 62.0094 61.5113 63.4594C65.8636 62.6382 70.8267 62.1405 70.8267 62.1405L65.4786 55.9272C66.3597 58.0683 67.1124 59.8849 67.4104 60.6062C67.5021 60.8225 67.5498 60.9417 67.5498 60.9417L68.4144 60.7684Z" fill="#D1BAB4"/>
<path d="M44.5277 70.338L38.5552 69.1721C38.5552 69.1721 36.2548 73.3269 36.2218 73.7302C36.1897 74.1335 37.9904 75.0262 37.9904 75.0262L40.3266 72.622C40.3266 72.622 44.6689 74.6862 45.8306 73.0638L44.5277 70.338Z" fill="#E2C8C1"/>
<path d="M60.418 73.3923C60.3116 73.3877 60.2052 73.3814 60.0971 73.3759L61.5137 72.9963L61.3285 73.4364C61.025 73.4208 60.7215 73.4088 60.418 73.3923Z" fill="#8AB6C0"/>
<path d="M91.0717 125.577C92.4351 120.605 93.958 115.098 95.4883 109.59L53.8369 106.302C62.6975 110.769 85.2533 122.185 91.0717 125.577ZM48.9582 100.091C49.3103 100.14 49.6624 100.185 50.0126 100.234L48.828 103.048L97.0176 104.094C101.401 88.373 105.424 74.1216 105.424 74.1216L111.643 71.821C111.56 72.195 106.41 88.0036 100.919 104.828L135.22 142.558L133.925 143.694L99.8278 108.176C93.8352 126.531 87.8086 144.957 87.8086 144.957C87.8086 144.957 86.2884 146.092 86.0161 144.976C85.9336 144.642 87.6408 138.153 90.0732 129.229L47.9699 107.3C47.7682 107.375 47.538 107.357 47.3574 107.222L47.1694 106.985L31.2187 144.842L29.1393 143.932L45.7657 99.6593C46.8302 99.7996 47.8937 99.9444 48.9582 100.091Z" fill="#8AB6C0"/>
<path d="M96.1595 70.4642C96.1595 70.4642 118.769 64.7926 118.822 69.5091C118.875 74.2238 103.402 74.024 103.402 74.024C103.402 74.024 94.5614 75.3365 96.1595 70.4642Z" fill="#565C63"/>
<path d="M49.7964 100.783C50.0357 100.213 41.3539 79.0825 41.3539 79.0825L39.0562 79.9597L46.0675 100.825L49.7964 100.783Z" fill="#8AB6C0"/>
<path d="M89.9868 143.047L132.668 139.74L134.466 142.548L88.0596 144.147L88.0458 142.882L89.9868 143.047Z" fill="#8AB6C0"/>
<path d="M81.3963 146.572C81.4219 148.956 83.3776 150.867 85.7624 150.841C88.1472 150.813 90.058 148.86 90.0305 146.476C90.0057 144.091 88.0509 142.181 85.6652 142.208C83.2804 142.235 81.3697 144.188 81.3963 146.572Z" fill="#8AB6C0"/>
<path d="M85.7217 146.531L74.0115 135.191L72.7728 135.765L85.2284 147.263L85.7217 146.531Z" fill="#393C4D"/>
<path d="M68.9352 136.684L78.2744 136.578L78.2424 133.717L68.9031 133.822L68.9352 136.684Z" fill="#393C4D"/>
<path d="M90.2101 158.596L99.5493 158.491L99.5182 155.629L90.178 155.733L90.2101 158.596Z" fill="#393C4D"/>
<path d="M59.4237 28.3907C59.4237 28.3907 68.5859 23.9519 77.1559 23.3864C85.724 22.8209 82.8184 27.2387 82.8184 27.2387L59.4237 28.3907Z" fill="#9FB2B2"/>
<path d="M81.8926 120.154L81.4671 125.446C81.4671 125.446 79.8176 125.772 79.792 125.564C79.7681 125.352 78.8962 120.663 78.8962 120.663L81.8926 120.154Z" fill="#D6E3F5"/>
<path d="M78.8039 121.319L82.2147 120.845C83.7504 108.652 82.332 100.4 80.2911 95.0016C77.7587 88.3044 74.2691 85.9975 74.2691 85.9975C74.2691 85.9975 97.5007 78.4828 110.151 71.1578C113.086 69.4576 115.452 67.7674 116.827 66.1845C124.12 57.7807 112.675 47.8728 112.314 47.7207L88.7556 59.5644C88.7556 59.5644 60.9773 77.3141 59.2582 81.6091C57.54 85.904 78.8039 121.319 78.8039 121.319Z" fill="#8F959C"/>
<path d="M33.3597 10.6396C34.7414 9.25196 36.3459 8.04394 38.0778 7.12648C39.8034 6.2136 41.6729 5.57575 43.624 5.38602C45.4678 5.20638 47.3281 5.47951 49.0454 6.16876C49.8834 6.50421 50.6683 6.95052 51.3944 7.48853C52.1023 8.0128 52.7587 8.64521 53.2456 9.38303C53.8104 10.0723 54.2706 10.8523 54.6181 11.6707C55.215 13.0795 55.4286 14.6541 55.4121 16.1774C55.4011 17.0884 55.3104 17.9967 55.1655 18.8959L55.1958 19.0306C55.5268 19.2249 55.7578 19.5659 55.7844 19.9857C55.8082 20.3762 55.6239 20.7639 55.3214 20.9902C55.2856 21.125 55.2196 21.2496 55.1307 21.3587C55.3874 21.4806 55.5909 21.7042 55.6514 22.0149L55.656 22.058L55.7734 22.1377C56.2208 22.4897 56.3345 23.1918 56.0787 23.6867C55.9888 23.8609 55.8605 24.001 55.7074 24.1092C55.6835 24.2494 55.6331 24.386 55.557 24.5033L55.6203 24.4987C56.1713 24.4685 56.8104 24.6564 57.1304 25.1366C57.5145 25.7159 57.2862 26.3969 56.7618 26.7883C55.9577 27.3868 54.8235 27.1017 54.1111 26.4766L53.969 26.4611L53.7059 26.3795C53.0861 26.7159 52.3892 26.8827 51.6677 26.8681C50.6188 26.847 49.6194 26.4941 48.7392 25.9332C47.8049 25.3392 47.0136 24.5739 46.2563 23.7737C45.5063 22.98 44.7737 22.1625 43.9128 21.4842L43.6267 21.2679L43.4819 21.1616L43.481 21.1607L43.3929 21.1011C43.1876 20.9637 42.9758 20.8308 42.7603 20.7079C42.3239 20.4586 41.8691 20.2414 41.3997 20.0627C41.3621 20.048 41.2199 20.0003 41.3291 20.037L41.1604 19.9793C41.0311 19.9371 40.9018 19.8976 40.7716 19.8628C40.536 19.7977 40.2985 19.7437 40.0583 19.7015C39.9428 19.6814 39.8272 19.663 39.7108 19.6484L39.5357 19.6273L39.4357 19.6181L39.3817 19.6135L39.3385 19.6108L39.2643 19.6062L39.0626 19.5998C38.937 19.5988 38.8114 19.5998 38.6867 19.6044C38.4419 19.6136 38.1989 19.6364 37.9577 19.6722L37.7817 19.7015L37.7771 19.7024L37.7038 19.7162C37.5708 19.7455 37.4388 19.7767 37.3068 19.8124C36.8282 19.9371 36.3596 20.0993 35.8911 20.2542C34.867 20.5934 33.8071 20.905 32.7179 20.8069C32.1476 20.7556 31.5993 20.553 31.1583 20.1846C30.7833 19.8721 30.5192 19.4413 30.345 18.9903C29.9893 18.0747 30.0205 17.0289 30.1992 16.0794C30.5962 13.9805 31.8762 12.1318 33.3597 10.6396Z" fill="#474747"/>
<path d="M45.091 32.2367C47.6299 32.1258 51.874 34.2228 54.4413 35.7645C55.7652 36.5582 56.6427 37.2071 56.617 37.3299C56.54 37.6947 63.0562 28.0115 63.0562 28.0115L56.992 26.2361L49.4333 24.0208L48.1992 23.6597L45.091 32.2367Z" fill="#E7D0CA"/>
<path d="M60.4072 26.2577L60.3825 26.2449L60.4072 26.2577Z" fill="#F39BA0"/>
<path d="M45.103 32.2151C47.6418 32.1042 51.8859 34.2012 54.4531 35.7429C54.1643 34.4185 52.7918 32.4947 51.5448 31.0942C49.3526 28.636 51.0461 24.6682 51.0461 24.6682L47.2072 26.4078L45.103 32.2151Z" fill="#D1BAB5"/>
<path d="M33.2947 17.7183C35.254 16.8687 36.9777 15.5167 38.3411 13.8798C38.7354 13.4078 39.0984 12.9064 39.423 12.3831C39.9731 13.1777 40.636 13.8991 41.342 14.5416C41.673 14.844 42.0159 15.1383 42.3716 15.4123C42.7356 15.6928 43.1317 15.9274 43.5342 16.1455C43.9404 16.3655 44.3548 16.5644 44.761 16.7834C45.1772 17.0071 45.5614 17.3013 45.9878 17.5011L46.0281 17.5148L46.0336 17.7687C46.0336 17.7687 46.1189 17.6468 46.2665 17.4791L46.4123 17.3526L46.4453 17.2884C47.3511 16.3811 49.5397 15.0466 50.8481 21.4669C50.8481 21.4669 52.3893 23.1937 51.4092 25.4026C50.43 27.6115 42.224 35.6642 40.2124 34.3453C39.224 33.6964 37.4362 30.8771 35.8656 27.6481C35.4566 27.8938 34.9349 28.1329 34.5526 28.0514C33.8209 27.8956 33.7568 22.5906 33.7568 22.5906C33.1956 20.9335 32.8335 19.4093 32.817 18.2655C32.8151 18.1473 32.8188 18.0281 32.8252 17.9108C32.982 17.8494 33.1397 17.7862 33.2947 17.7183Z" fill="#E7D0CA"/>
<path d="M37.1957 22.3436L37.2507 22.2263L37.3388 22.1374L37.4148 22.0998L37.5423 22.0879L37.6276 22.1053L37.7403 22.1694L37.8467 22.393L37.8412 22.4811L37.8449 22.5406L37.8723 22.6195L37.9136 22.7056L37.8797 22.6342L37.9374 22.7239L37.9814 22.8623L37.9503 23.0108L37.8632 23.1098L37.8522 23.1199L37.7137 23.1649L37.5652 23.1327L37.4506 23.0566L37.3992 23.0145L37.2452 22.7725L37.192 22.5654L37.1847 22.4967L37.1957 22.3436Z" fill="#545454"/>
<path d="M50.771 20.2691C50.771 20.2691 33.8457 21.2279 33.5303 20.5276C33.214 19.8274 50.6637 18.5771 50.6637 18.5771L50.771 20.2691Z" fill="#D1BAB5"/>
<path d="M56.1768 16.5325C56.1813 17.5361 31.0162 20.7129 31.0162 20.7129C31.0162 20.7129 27.8475 14.3749 30.6641 10.1799C33.4789 5.98301 43.0078 2.29119 47.9818 4.20676C52.9549 6.12325 56.141 11.091 56.1768 16.5325Z" fill="#757C84"/>
<path d="M56.0971 14.9978C56.0971 14.9978 65.7149 17.1315 64.1278 18.2323C62.5417 19.3331 45.0415 18.7722 45.0415 18.7722C45.0415 18.7722 55.502 17.5366 56.0971 14.9978Z" fill="#9FB2B2"/>
<path d="M62.6285 45.1582C65.039 46.2305 67.2669 46.7923 68.0775 47.2332C70.2312 48.4055 78.7159 64.0683 80.0453 66.1718C80.281 66.5457 81.4335 66.3046 83.1737 65.6502C91.2485 62.6183 112.002 50.6583 112.594 49.6794C113.316 48.4879 111.578 45.2278 111.578 45.2278C86.9915 15.4125 58.2964 27.4715 58.2964 27.4715L54.7902 33.8076C54.1154 40.1849 58.6228 43.3764 62.6285 45.1582Z" fill="#474A51"/>
<path d="M81.5682 124.169C81.5682 124.169 84.5718 127.739 83.8181 128.303C83.0654 128.868 76.5052 133.835 74.7888 133.947C73.0734 134.06 68.5862 132.909 68.8769 132.392C69.1675 131.873 70.916 130.849 72.008 130.728C73.1 130.608 74.5624 130.142 74.5624 130.142L79.6776 124.913L79.5575 124.257L81.5682 124.169Z" fill="#9FB2B2"/>
<path d="M62.6355 45.1518C65.046 46.2241 67.2739 46.7878 68.0844 47.2268C70.2381 48.399 78.7228 64.0619 80.0523 66.1653C80.2879 66.5393 81.4405 66.2991 83.1807 65.6438C81.4157 59.7852 76.0575 48.5191 73.7415 45.4001C71.3989 42.2509 65.5466 44.1793 62.6355 45.1518Z" fill="#909193"/>
<path d="M44.5093 76.3813L45.0943 79.0484C45.0943 79.0484 74.3322 73.903 76.9096 71.3614C79.4869 68.8216 67.6015 44.1465 67.6015 44.1465L61.1945 51.2488C61.1908 51.5568 63.6022 57.4822 65.446 61.9733C66.3271 64.1143 67.0798 65.9309 67.3787 66.6522C67.4686 66.8685 67.5181 66.9877 67.5181 66.9877L68.3809 66.8145C67.9683 66.9245 65.0958 68.0554 61.4787 69.5063C54.4152 72.3375 44.5093 76.3813 44.5093 76.3813Z" fill="#E7D0CA"/>
<path d="M61.3137 54.9969C60.9442 53.9914 55.3569 40.8848 58.7868 38.6036C62.2177 36.3214 73.2843 43.9507 73.0056 54.0418C73.0056 54.0418 62.0206 56.9216 61.3137 54.9969Z" fill="#474A51"/>
<path d="M68.3784 66.8107C67.9658 66.9207 65.0932 68.0517 61.4762 69.5026C65.8277 68.6813 70.7925 68.1828 70.7925 68.1828L65.4435 61.9695C66.3246 64.1105 67.0773 65.9271 67.3762 66.6484C67.4661 66.8648 67.5156 66.9839 67.5156 66.9839L68.3784 66.8107Z" fill="#D1BAB4"/>
<path d="M44.5174 76.3909L38.5449 75.2241C38.5449 75.2241 36.2445 79.3778 36.2124 79.7811C36.1794 80.1853 37.9819 81.079 37.9819 81.079L40.3172 78.6749C40.3172 78.6749 44.6596 80.7389 45.8203 79.1157L44.5174 76.3909Z" fill="#E7D0CA"/>
<path d="M80.2854 95.0187C77.753 88.3215 74.2635 86.0146 74.2635 86.0146C74.2635 86.0146 97.495 78.4999 110.145 71.1748C97.7994 76.0188 74.4523 84.9239 71.1241 84.3336C67.6061 83.7085 75.702 89.7183 80.2854 95.0187Z" fill="#757C84"/>
<path d="M111.663 43.8997L113.264 48.5731C113.264 48.5731 91.2484 58.1877 71.2589 46.796L69.1373 43.6128C69.1373 43.6128 102.309 53.0752 111.663 43.8997Z" fill="#9FB2B2"/>
<path d="M74.3632 23.7699L115.676 51.2535L145.997 19.0451C145.997 19.0451 132.554 4.67088 117.133 0.624326C101.712 -3.42131 72.5332 13.1132 74.3632 23.7699Z" fill="#B4C9CA"/>
<path d="M142.932 14.2144C142.932 14.2144 148.188 18.7549 147.693 18.7155C147.445 18.6953 139.415 27.2229 131.342 35.7486C123.211 44.3394 115.035 52.9292 114.733 52.7798C114.133 52.4838 109.352 48.2485 109.352 48.2485L142.932 14.2144Z" fill="#9FB2B3"/>
<path d="M76.5705 25.2203C96.8387 1.09579 121.794 2.14428 121.794 2.14428C97.0331 -2.10027 75.3822 24.4293 75.3822 24.4293L76.5705 25.2203Z" fill="#A8BEBF"/>
<path d="M114.032 12.4273C113.752 12.4044 101.213 25.0793 101.213 25.0793L114.16 23.6587L114.032 12.4273Z" fill="#9FB2B2"/>
<path d="M104.858 27.076C106.363 28.1795 107.866 29.2821 109.371 30.3848C110.123 30.9374 110.874 31.4891 111.627 32.0409C112.374 32.5881 113.106 33.1682 113.869 33.6916L114.06 33.7906L114.133 33.7576C114.263 33.6513 114.367 33.4827 114.481 33.3342C114.763 32.9621 115.046 32.5908 115.329 32.2196C115.895 31.4763 116.46 30.734 117.026 29.9916C118.159 28.5058 119.291 27.0191 120.422 25.5343C121.061 24.6947 121.701 23.8561 122.342 23.0157C122.912 22.2668 123.476 21.5116 124.062 20.7738C123.1 20.0112 122.114 19.277 121.137 18.5328C120.596 18.1213 120.057 17.7106 119.517 17.3C118.976 16.8876 118.447 16.4641 117.916 16.0398C117.314 15.5595 116.71 15.082 116.111 14.5953C115.888 14.4138 116.129 14.0555 116.37 14.2241C117.479 15.005 118.589 15.784 119.674 16.5979C120.759 17.4128 121.843 18.2285 122.927 19.0442C123.543 19.5053 124.156 19.9709 124.783 20.4163C124.941 20.529 124.989 20.7618 124.874 20.9241C123.754 22.4923 122.553 24.0064 121.389 25.5407C120.234 27.0604 119.081 28.5791 117.927 30.0997C117.35 30.8586 116.773 31.6193 116.195 32.3783L115.312 33.5432C115.06 33.8741 114.807 34.3323 114.411 34.5073C113.904 34.731 113.471 34.3846 113.081 34.1005C112.688 33.8145 112.293 33.5276 111.902 33.2398C111.134 32.6761 110.366 32.1106 109.599 31.5469C107.867 30.2729 106.135 28.9998 104.404 27.7277C103.991 27.4252 104.444 26.7707 104.858 27.076Z" fill="#9FB2B3"/>
<path d="M114.367 24.2683C114.43 24.128 114.508 24.0134 114.625 23.9108L114.803 23.7889L114.904 23.7439C115.05 23.6926 115.183 23.6588 115.341 23.6725C115.489 23.6863 115.636 23.7367 115.757 23.8219C115.87 23.9025 115.978 24.0217 116.029 24.1518L116.091 24.3736L116.093 24.5835C116.099 24.7063 116.085 24.8301 116.034 24.9437L115.924 25.1407L115.769 25.3048L115.579 25.4258L115.423 25.4808L115.352 25.4946C115.194 25.5129 115.028 25.5046 114.881 25.4341C114.739 25.3653 114.603 25.2791 114.509 25.149C114.416 25.0216 114.336 24.8759 114.318 24.7164C114.301 24.567 114.304 24.4094 114.367 24.2683Z" fill="#9FB2B3"/>
<path d="M38.2788 78.1472C38.2934 79.5881 39.4753 80.7438 40.9166 80.7273C42.3588 80.7117 43.514 79.5294 43.4994 78.0876C43.4829 76.6468 42.3001 75.4929 40.8588 75.5085C39.4175 75.525 38.2622 76.7064 38.2788 78.1472Z" fill="#393C4D"/>
<path d="M76.5898 25.2352L75.011 24.1849C74.7533 24.1492 74.5122 24.1345 74.2903 24.1345C73.1021 24.1345 72.4245 24.5571 72.4245 24.5571C72.4245 24.5571 68.6488 24.8696 68.9679 25.2032C70.1067 25.1124 71.3169 25.0584 72.5904 25.0584C73.8649 25.0584 75.2008 25.1124 76.5898 25.2352Z" fill="#9FB2B2"/>
<path d="M110.792 50.7948L111.58 50.2119C111.298 49.9672 111.022 49.7271 110.767 49.5043C110.388 49.6308 109.968 49.7646 109.514 49.903C110.333 50.4722 110.792 50.7948 110.792 50.7948ZM105.379 47.0425C106.333 46.8097 107.232 46.5264 108.065 46.1845L76.5787 25.2369C75.1897 25.1141 73.8538 25.0601 72.5793 25.0601C71.3058 25.0601 70.0956 25.1141 68.9568 25.2049C69.054 25.3075 69.539 25.412 70.6393 25.511C74.171 25.8263 95.2598 40.0776 105.379 47.0425Z" fill="#74767A"/>
<path d="M109.51 49.9018C109.964 49.7634 110.384 49.6296 110.762 49.5031C109.954 48.7983 109.349 48.2621 109.349 48.2621L109.948 47.6545L109.366 47.0523L108.06 46.1833C107.228 46.5252 106.328 46.8085 105.375 47.0413C107.135 48.2529 108.563 49.2428 109.51 49.9018Z" fill="#9FB2B2"/>
<path d="M109.367 47.0358L107.423 45.0222C107.423 45.0222 83.4873 29.8433 79.3274 26.3293C78.4738 25.6089 77.678 25.1075 76.9528 24.7675C76.8262 24.916 76.6988 25.0681 76.5723 25.2175L75.384 24.4265C75.384 24.4265 75.4289 24.3706 75.5179 24.2643C75.3382 24.2221 75.163 24.1919 74.9961 24.1689L109.367 47.0358Z" fill="#9FB2B2"/>
<path d="M111.593 50.2085L112.084 49.8465L109.966 47.6523L109.367 48.26C109.367 48.26 109.972 48.7962 110.78 49.501C111.035 49.7237 111.311 49.9638 111.593 50.2085Z" fill="#9FB2B2"/>
<path d="M76.5716 25.2299C76.6982 25.0805 76.8256 24.9283 76.9521 24.7798C76.4369 24.5388 75.9573 24.3783 75.5172 24.2766C75.4283 24.3829 75.3833 24.4389 75.3833 24.4389L76.5716 25.2299Z" fill="#9FB2B2"/>
</svg>
