<?xml version="1.0" encoding="UTF-8"?>
<!DOCTYPE svg PUBLIC "-//W3C//DTD SVG 1.1//EN" "http://www.w3.org/Graphics/SVG/1.1/DTD/svg11.dtd">
<!-- Creator: CorelDRAW X7 -->
<svg xmlns="http://www.w3.org/2000/svg" xml:space="preserve" width="120mm" height="120mm" version="1.1" style="shape-rendering:geometricPrecision; text-rendering:geometricPrecision; image-rendering:optimizeQuality; fill-rule:evenodd; clip-rule:evenodd"
viewBox="0 0 12000 12000"
 xmlns:xlink="http://www.w3.org/1999/xlink">
 <defs>
  <style type="text/css">
   <![CDATA[
    .fil0 {fill:#8E05EC}
    .fil1 {fill:#9403EE}
   ]]>
  </style>
 </defs>
 <g id="Слой_x0020_1">
  <metadata id="CorelCorpID_0Corel-Layer"/>
  <g id="_206936297920">
   <path class="fil0" d="M6226 10319c33,2 90,8 130,14l292 -5c63,1 82,-10 143,-10 327,0 818,-20 1140,-85 95,-18 157,-35 242,-64 113,-38 171,27 236,-71 219,0 593,-157 782,-252 62,-31 109,-56 169,-89 57,-31 109,-60 163,-95l222 -161c30,-23 42,-44 71,-63 0,163 -160,271 -279,352 -124,84 -259,166 -397,235l-211 105c-76,39 -136,65 -216,100 -38,16 -69,31 -107,46 -551,221 -1150,298 -1748,330 -49,2 -80,10 -144,9l-238 1c-31,2 -35,8 -68,9 -32,1 -46,-4 -69,-7 -73,-9 -40,15 -67,-97l-46 -202zm-2116 -1053l0 -355c0,-233 248,-13 355,67 44,34 84,64 127,103 24,23 37,28 62,53 192,190 126,71 334,240 45,36 85,66 129,101l640 509c154,120 219,219 290,399 21,54 63,119 74,165 -353,-236 -772,-489 -1139,-709l-642 -392c-61,-30 -230,-103 -230,-181zm297 -508c322,0 622,-34 928,-58 624,-48 1298,-149 1865,-375 32,-13 58,-22 87,-38l76 -49c61,-27 313,-121 376,-121 87,0 112,9 183,46 44,23 89,45 131,70 23,14 37,21 62,34l993 520c81,41 457,224 524,280 64,54 136,183 136,275 -80,19 -199,146 -285,203 -424,284 -745,348 -1219,495 -164,51 -856,149 -1071,154 -74,2 -157,19 -229,20 -85,0 -147,9 -240,9 -117,0 -388,7 -489,-9 -128,-21 -61,-109 -262,-265l-113 -97c-90,-86 -873,-715 -940,-755 -170,-102 -224,-143 -383,-249 -37,-25 -114,-68 -130,-90zm-249 -143c0,-46 -6,-33 16,-63 42,-57 32,17 32,53 -20,0 -38,-2 -48,10zm-632 -2528c76,-17 118,-57 202,-76l42 321c15,112 14,225 35,329 19,92 28,223 38,325 4,39 20,124 16,161 -4,32 -11,25 -2,74l24 72c0,140 -16,243 2,381 15,106 17,263 26,376 2,31 -1,65 0,96l52 455c22,125 44,86 44,167 -50,-14 -138,-159 -154,-239 -22,-108 -55,-203 -81,-311 -83,-334 -67,-376 -107,-688l-31 -361c-5,-121 -27,-241 -38,-355 -7,-81 -56,-703 -68,-727zm-181 -1847l13 34c4,10 8,27 11,37 89,321 282,993 282,1288 -66,15 -119,63 -172,67 0,-256 -37,-487 -65,-711l-69 -715zm-10 -29c0,-25 15,-2 6,0 0,0 -6,27 -6,0zm3573 2575c6,-33 -31,-9 -41,-69 -6,-35 -10,-85 -16,-120 -52,-310 -169,-753 -252,-1061 -102,-378 -218,-942 -229,-1326 -5,-171 -16,-342 -28,-500 -6,-77 -1,-176 -2,-255 -1,-162 14,-122 39,-196 34,67 39,833 38,981 -1,276 160,1007 237,1290 41,153 66,261 102,406 35,138 67,276 93,412 43,217 34,275 59,438zm-3008 -3772c25,18 61,78 84,107 27,33 68,73 105,96 44,28 97,38 134,68 174,140 523,216 778,217 76,1 94,14 175,3 336,-45 456,12 891,-114 59,-17 164,-50 213,-84 32,-22 22,-34 61,-44 -63,119 -31,245 -28,344 1,45 -2,91 -1,135 1,49 10,59 10,114l9 259c23,425 62,642 145,1052 70,349 382,1384 382,1744 0,199 4,702 -45,826 -10,24 -18,32 -27,59 -9,23 -17,57 -21,74l-89 467c-119,10 -401,87 -545,116 -298,59 -337,46 -579,81 -273,39 -336,37 -608,52 -150,8 -131,19 -317,19 -54,0 -108,0 -162,0 -69,0 -106,10 -163,10 5,-66 39,-153 53,-225 111,-554 45,-1475 4,-2015 -45,-587 -150,-1102 -243,-1662 -91,-548 -216,-1144 -216,-1699zm-96 -804c0,-126 13,-147 57,-249 37,-84 42,-101 128,-140 247,-114 386,-109 648,-109 385,0 986,-4 1359,77 217,48 300,149 383,335 66,146 106,400 106,613 0,129 -54,301 -168,387 -106,80 -252,127 -403,162 -243,56 -794,109 -1012,76 -200,-30 -475,-100 -642,-191 -68,-38 -94,-85 -155,-132 -96,-74 -154,-244 -209,-356 -44,-92 -92,-363 -92,-473zm-134 -57c0,251 0,272 67,517 51,183 57,64 39,287 -9,112 11,370 24,463 16,116 21,214 36,329 96,754 240,1461 348,2207l49 315c32,318 49,532 49,860 1,64 11,99 10,172 -1,279 -10,578 -57,852 -10,57 -19,106 -19,172l-10 0c0,-113 12,-315 -4,-417 -23,-155 -6,-360 -15,-521l-71 -685c-72,-531 -126,-954 -231,-1482 -49,-244 -100,-465 -150,-702 -49,-229 -112,-471 -160,-702 -73,-354 -162,-700 -222,-1061 -52,-313 -75,-628 -1,-941 50,-210 68,-257 222,-257 61,0 191,222 201,268 -40,61 -45,53 -73,138 -18,56 -32,117 -32,188zm2499 -460c174,0 369,15 473,168 80,117 130,318 130,512 0,731 -500,1019 -25,2245 28,71 48,133 75,203 15,37 24,68 39,105 82,210 261,715 331,942 137,449 298,928 298,1406 0,229 8,312 -41,544 -13,62 -70,241 -102,280 -35,42 -200,91 -266,117 -50,20 -245,89 -290,93 0,-59 18,-91 32,-140 22,-73 70,-206 73,-272 2,-49 -5,-36 11,-75 17,-40 13,-24 20,-76 21,-163 26,-113 36,-317 3,-43 9,-36 10,-77 1,-46 -8,-41 -9,-77 -1,-45 6,-26 3,-71 -3,-50 18,-221 -11,-342 -19,-77 -22,-164 -32,-246 -18,-158 -51,-326 -85,-470 -164,-693 -302,-1113 -385,-1837 -11,-98 -8,-288 -7,-404 0,-61 -10,-78 -11,-133 -1,-92 0,-186 1,-278l-11 -200c-4,-32 -11,-27 -18,-59 23,-34 56,-58 85,-97 222,-296 125,-729 12,-1034 -83,-225 -146,-287 -320,-398 -17,-11 -6,-3 -16,-12zm-2987 574c0,406 162,1158 258,1551l253 1097c29,129 55,256 80,380 65,324 157,819 194,1156 15,134 38,275 47,412l59 851c0,72 -5,151 -1,221l12 217c15,105 13,223 16,329 2,45 4,67 39,76 0,40 -1,97 -38,125 -23,-99 -35,-197 -38,-316 -1,-36 -8,-118 -14,-159l-44 -492c-2,-53 -12,-117 -18,-165 -6,-52 9,-106 9,-170 0,-36 -20,-10 -20,-87 0,-156 14,-353 -38,-497 -17,-46 2,-305 -66,-499 -34,-99 -13,-197 -32,-351 -56,-449 -287,-1453 -390,-1869 -19,-76 -154,-477 -195,-562 -73,-152 -63,-199 -96,-277 -25,-58 -30,-22 -53,-138 -36,-177 -22,-126 -87,-287 -25,-63 -13,-95 -20,-171 -5,-46 -19,-114 -29,-163 -5,-28 -5,-51 -11,-84 -16,-90 -16,-17 -16,-156 0,-128 40,-242 92,-348 47,-96 123,-179 214,-227 -1,42 -14,96 -22,141 -28,169 -45,280 -45,462zm2431 -708l193 63 -164 -6 -29 -57zm-1885 -38c94,0 198,-12 287,-19 13,51 71,75 76,134 -131,11 -182,92 -229,105 -3,-101 -100,-155 -134,-220zm382 -115c137,0 93,20 261,1l323 18c86,0 133,-10 221,-9 53,0 67,-7 106,-10 51,-4 54,9 104,9 85,0 139,-9 230,-9 8,95 74,60 144,191l-680 10c-56,0 -70,-7 -115,-10 -75,-4 -163,0 -239,0 -94,0 -153,-9 -240,-9 -27,-119 -65,-109 -115,-182zm-1292 804c0,204 -2,372 52,561 70,243 116,501 191,766 162,568 223,1516 291,2131l60 658c17,219 51,440 57,671l82 885c39,269 87,531 215,752 28,49 38,201 201,287 0,55 -10,66 -10,124 0,333 26,352 317,526 88,53 60,55 175,112 112,57 1030,625 1216,737 92,55 174,110 278,153 181,75 134,134 379,177 104,18 284,14 385,1 219,-28 375,-2 657,-41l484 -81c44,-10 61,-21 94,-41 90,-56 457,-127 562,-136 206,-18 806,-349 958,-449 194,-129 498,-380 498,-632 0,-137 -89,-238 -161,-309 -121,-121 -275,-210 -426,-291l-935 -492c-245,-121 -408,-253 -673,-285 -56,-6 -146,17 -218,17 1,-54 50,-189 65,-251 69,-295 19,-670 -28,-954 -87,-523 -331,-1152 -500,-1663l-112 -318c-120,-362 -157,-453 -252,-830 -7,-26 -13,-34 -19,-58 -26,-99 -28,-336 -9,-447 11,-65 19,-109 34,-168 95,-376 289,-951 128,-1338 -21,-50 -42,-77 -66,-125 -21,-43 -45,-85 -76,-116 -35,-36 -64,-55 -109,-82 -133,-77 -87,-113 -463,-111 -161,0 -202,-24 -319,-64 -52,-17 -92,-33 -146,-46 -54,-12 -114,-14 -161,-30 -91,-31 7,-82 -256,-127 -216,-37 -239,-8 -361,-22 -30,-3 -44,-10 -88,-9 -46,1 -46,11 -86,10 -70,0 -38,-9 -172,1 -115,9 -344,8 -458,20 -156,17 -170,-13 -247,40 -118,82 -114,63 -291,92 -408,68 -737,321 -737,795z"/>
   <path class="fil1" d="M6908 6786c-25,-163 -16,-221 -59,-438 -26,-136 -58,-274 -93,-412 -36,-145 -61,-253 -102,-406 -77,-283 -238,-1014 -237,-1290 1,-148 -4,-914 -38,-981 -25,74 -40,34 -39,196 1,79 -4,178 2,255 12,158 23,329 28,500 11,384 127,948 229,1326 83,308 200,751 252,1061 6,35 10,85 16,120 10,60 47,36 41,69z"/>
  </g>
 </g>
</svg>
