<?xml version="1.0" encoding="UTF-8"?>
<!DOCTYPE svg PUBLIC "-//W3C//DTD SVG 1.1//EN" "http://www.w3.org/Graphics/SVG/1.1/DTD/svg11.dtd">
<!-- Creator: CorelDRAW X7 -->
<svg xmlns="http://www.w3.org/2000/svg" xml:space="preserve" width="42.3332mm" height="42.3332mm" version="1.1" style="shape-rendering:geometricPrecision; text-rendering:geometricPrecision; image-rendering:optimizeQuality; fill-rule:evenodd; clip-rule:evenodd"
viewBox="0 0 4233 4233"
 xmlns:xlink="http://www.w3.org/1999/xlink">
 <defs>
  <style type="text/css">
   <![CDATA[
    .fil0 {fill:#7F0CE8}
   ]]>
  </style>
 </defs>
 <g id="Слой_x0020_1">
  <metadata id="CorelCorpID_0Corel-Layer"/>
  <g id="_917447643808">
   <path class="fil0" d="M2350 3870c-110,-164 -75,-231 112,-279 319,-83 955,-138 955,-636 45,22 218,54 218,218 0,310 -1064,692 -1285,697zm-1046 -109l0 109c-246,0 -218,-83 -218,-218 0,-364 96,-804 311,-1061 259,-310 359,-162 495,-159l0 44c-192,44 -368,320 -439,497 -87,216 -149,482 -149,788zm-523 -87c-83,0 -146,-53 -196,-87 0,-341 92,-895 310,-1128 227,-244 237,-207 452,-176 -18,66 -32,45 -114,121 -145,135 -216,255 -291,451 -166,437 -83,819 -161,819zm784 -1329l0 43c-394,106 -545,917 -545,1351 0,139 125,197 262,197 176,0 -8,-367 236,-963 77,-188 237,-395 426,-469 101,-39 127,-9 231,15 0,175 -18,290 -21,480 -1,113 -17,120 -22,217 -5,84 6,177 -1,261 -37,449 65,449 -410,614 -165,58 -230,34 -389,-31 -124,-50 -244,-92 -355,-146 -57,-28 -104,-43 -167,-73 -316,-146 -421,-160 -421,-385 0,-285 57,-560 142,-772 57,-140 85,-185 165,-293 147,-198 235,-208 368,-177 -28,39 -101,89 -147,136 -299,298 -335,636 -380,1037 -22,200 -22,301 192,343 253,50 48,-238 267,-843 65,-182 195,-398 352,-499 106,-68 93,-53 217,-43zm-436 -327l1068 283c-15,64 -22,67 -22,153 -354,-83 -691,-201 -1046,-283l0 -153zm197 -22c159,0 362,-6 486,15 168,29 263,61 407,94 -4,172 -2,135 -397,26l-482 -128c-3,-1 -10,-4 -14,-7zm1982 806c20,86 164,362 -231,553 -106,52 -389,145 -531,145 0,-276 25,-983 78,-1230 96,-448 341,-601 793,-601 332,0 281,14 139,488 -35,117 -64,216 -103,332 -65,194 -34,148 -145,313zm-806 -1176l0 0zm-22 1896c-153,35 -261,66 -261,261l-44 0c0,-139 7,-223 19,-330l53 -1059c28,-222 47,-397 158,-560 271,-394 658,-252 947,-252l0 22c-736,0 -853,663 -850,1242 1,256 -22,436 -22,676zm-566 -1569c-144,0 -211,-23 -370,-22 -131,0 -262,0 -393,0 52,-108 61,-235 240,-349 145,-91 338,-109 545,-109 104,0 50,115 31,205 -22,100 -32,185 -53,275zm1198 -1003c117,27 77,22 94,146 35,252 190,335 277,464 -194,-45 -250,-65 -501,-65 24,-52 129,-469 130,-545zm-2048 1199c-123,-10 -52,-10 -174,0 0,-235 77,-468 200,-584 164,-153 320,-157 628,-157l0 22c-408,0 -654,308 -654,719zm2506 -610c-315,-211 -567,-807 196,-807 13,157 94,305 35,470 -50,142 -202,226 -231,337zm-1068 87c4,-178 149,-564 153,-719 161,0 260,21 392,21 0,203 -109,364 -109,567 -194,0 -309,64 -436,131zm-261 414c-60,-5 -219,-45 -262,-66 4,-167 207,-1019 262,-1133 116,56 210,66 348,66 -2,107 -104,482 -135,605 -54,218 -117,328 -213,528zm-175 -785c-325,-217 -289,-566 -21,-566 75,0 84,16 152,22 -3,135 -117,378 -131,544zm1482 -566c-126,10 -276,111 -305,218 -101,0 -252,-52 -415,-65 -155,-12 -358,21 -478,-23 -198,-73 -84,-522 239,-522l785 0c335,0 212,230 174,392zm-588 -523c708,0 929,-27 806,501l-152 0c43,-90 43,-175 43,-283 0,-236 -788,-153 -1046,-153 79,-55 230,-65 349,-65zm-763 479c-100,-2 -73,-22 -152,-22 -161,0 -298,159 -275,320 14,94 151,323 275,356 -2,66 -10,79 -22,131 -383,-184 -1199,-186 -1199,762 -119,80 -136,102 -218,218 -189,268 -430,1126 -175,1309 65,47 166,95 244,126l532 231c229,91 326,158 577,56 119,-48 280,-101 363,-203 42,-53 31,-74 116,-81 60,168 369,19 531,-35 244,-81 831,-320 892,-591 60,-266 -197,-256 -303,-385 -2,-3 -6,-9 -9,-13 114,-215 133,-281 205,-535 43,-152 143,-439 143,-598 0,-54 -54,-82 -87,-131 59,-221 240,-113 240,-523 0,-135 -44,-211 -44,-305 0,-244 116,-423 -86,-545 -170,-102 -1015,-154 -1283,47 -127,94 -243,150 -265,411z"/>
   <path class="fil0" d="M1936 3805c-127,29 -179,79 -305,109 0,-300 37,-969 348,-1133 0,191 -7,342 -20,502 -7,81 0,178 -1,261 -1,109 -22,151 -22,261zm-371 -109c0,260 -64,395 436,131 0,-125 13,-169 21,-263 12,-145 24,-729 1,-827 -189,0 -259,158 -340,357 -58,143 -118,413 -118,602z"/>
  </g>
 </g>
</svg>
