<?xml version="1.0" encoding="UTF-8"?>
<!DOCTYPE svg PUBLIC "-//W3C//DTD SVG 1.1//EN" "http://www.w3.org/Graphics/SVG/1.1/DTD/svg11.dtd">
<!-- Creator: CorelDRAW X7 -->
<svg xmlns="http://www.w3.org/2000/svg" xml:space="preserve" width="100mm" height="100mm" version="1.1" style="shape-rendering:geometricPrecision; text-rendering:geometricPrecision; image-rendering:optimizeQuality; fill-rule:evenodd; clip-rule:evenodd"
viewBox="0 0 10000 10000"
 xmlns:xlink="http://www.w3.org/1999/xlink">
 <defs>
  <style type="text/css">
   <![CDATA[
    .str0 {stroke:#7F0CE8;stroke-width:135.46}
    .fil0 {fill:none}
   ]]>
  </style>
 </defs>
 <g id="Слой_x0020_1">
  <metadata id="CorelCorpID_0Corel-Layer"/>
  <g id="_759153640256">
   <path class="fil0 str0" d="M6710 2803c253,59 519,272 694,445 180,178 334,446 426,714 148,433 134,947 356,1353 119,216 261,237 489,237 276,0 435,-364 323,-707 -43,-130 -365,-749 -365,-774 0,-32 11,-31 28,-57 91,7 93,87 161,209 143,256 323,574 323,887 0,160 -60,278 -150,392 -84,106 -232,164 -405,164 -560,0 -661,-677 -733,-1105 -85,-511 -218,-918 -581,-1284 -202,-204 -523,-402 -837,-402 -420,0 -742,76 -1021,359 -42,43 -69,53 -108,92 -40,41 -54,70 -99,115 -96,94 -186,228 -248,350 -82,159 -2,151 46,485 22,150 8,731 25,759 21,35 473,302 736,702l258 368c76,101 312,401 426,401 18,0 95,-48 109,-61 84,-82 154,-248 195,-361 101,-280 123,-547 123,-845 0,-737 -457,-1753 -1181,-1981 -87,-27 -93,-23 -72,-113 405,0 790,454 982,784 424,730 561,1801 86,2520 -195,296 -535,527 -926,527 -287,0 -477,-25 -717,-166 -428,-253 -242,-626 -187,-1008 62,-422 49,-896 49,-1332 0,-358 -169,-841 -338,-1029 -17,-19 -25,-24 -42,-44 -89,-106 -205,-195 -331,-267 -187,-108 -393,-156 -641,-156 -551,0 -1009,626 -1148,1103 -113,384 -137,825 -57,1227 39,198 110,370 189,551l178 307c523,778 1148,979 1194,1042 -276,132 -876,-59 -1144,-195 -66,-33 -120,-52 -186,-85 -69,-35 -120,-60 -190,-95 -357,-179 -849,-462 -1266,-388 -253,44 -481,284 -737,141 -40,-22 -47,-36 -95,-47 -21,18 -39,36 -57,57 34,64 64,84 130,112 371,158 510,-155 938,-155 278,0 554,158 790,264l321 163c44,23 82,37 128,57 389,173 853,416 1342,303 347,-81 -21,-115 611,122 520,195 1109,65 1636,30 253,-16 503,-81 746,-151 604,-174 1523,-620 1946,-1172 316,-413 655,-1053 655,-1596 0,-391 -106,-548 -291,-862 -145,-247 -333,-555 -539,-758 -63,-62 -115,-139 -185,-198l-221 -179c-109,-73 -209,-127 -334,-178 -283,-114 -678,-126 -928,47 -92,64 -268,234 -279,362z"/>
   <path class="fil0 str0" d="M4887 6335c0,231 71,287 282,416 388,237 1070,90 1242,-145 -43,-21 -74,-31 -114,-57 -35,-24 -56,-49 -92,-79 -234,-195 -560,-750 -695,-886 -34,-34 -58,-58 -93,-93 -89,-89 -278,-276 -402,-309 0,241 0,403 -27,599 -22,159 -101,425 -101,554z"/>
  </g>
 </g>
</svg>
