<?xml version="1.0" encoding="UTF-8"?>
<!DOCTYPE svg PUBLIC "-//W3C//DTD SVG 1.1//EN" "http://www.w3.org/Graphics/SVG/1.1/DTD/svg11.dtd">
<!-- Creator: CorelDRAW X7 -->
<svg xmlns="http://www.w3.org/2000/svg" xml:space="preserve" width="100mm" height="100mm" version="1.1" style="shape-rendering:geometricPrecision; text-rendering:geometricPrecision; image-rendering:optimizeQuality; fill-rule:evenodd; clip-rule:evenodd"
viewBox="0 0 10000 10000"
 xmlns:xlink="http://www.w3.org/1999/xlink">
 <defs>
  <style type="text/css">
   <![CDATA[
    .str0 {stroke:#7F0CE8;stroke-width:135.46}
    .fil0 {fill:none}
   ]]>
  </style>
 </defs>
 <g id="Слой_x0020_1">
  <metadata id="CorelCorpID_0Corel-Layer"/>
  <g id="_759302835888">
   <g>
    <g>
     <g>
      <path class="fil0 str0" d="M6743 3072l168 -359c132,-284 201,-593 202,-906l-417 0c0,252 -56,501 -162,729l-175 373 -11 29c-155,516 -142,1068 37,1577l-2710 0c179,-509 192,-1061 37,-1577l-186 -402c-107,-228 -162,-477 -163,-729l-416 0c0,313 69,622 202,906l168 359c153,518 103,1075 -140,1558 -392,862 -612,1793 -647,2740l0 1102 417 0 0 -1102c11,-423 67,-844 166,-1255l1292 806 0 1551 417 0 0 -1458 416 0 0 1458 417 0 0 -1551 1291 -806c100,411 156,832 167,1255l0 1102 416 0 0 -1102c-35,-947 -254,-1877 -645,-2740 -243,-483 -294,-1040 -141,-1558zm-1356 3526l-714 0 -1450 -906c73,-260 164,-514 272,-761l3069 0c108,247 199,501 271,761l-1448 906z"/>
      <rect class="fil0 str0" x="4822" y="3681" width="417" height="417"/>
      <polygon class="fil0 str0" points="2399,3890 3051,3890 3051,3473 2399,3473 2599,3172 2253,2941 1759,3681 2253,4422 2599,4191 "/>
      <polygon class="fil0 str0" points="7807,2941 7460,3172 7661,3473 7009,3473 7009,3890 7661,3890 7460,4191 7807,4422 8301,3681 "/>
     </g>
    </g>
   </g>
   <g>
   </g>
   <g>
   </g>
   <g>
   </g>
   <g>
   </g>
   <g>
   </g>
   <g>
   </g>
   <g>
   </g>
   <g>
   </g>
   <g>
   </g>
   <g>
   </g>
   <g>
   </g>
   <g>
   </g>
   <g>
   </g>
   <g>
   </g>
   <g>
   </g>
  </g>
 </g>
</svg>
