<?xml version="1.0" encoding="UTF-8"?>
<!DOCTYPE svg PUBLIC "-//W3C//DTD SVG 1.1//EN" "http://www.w3.org/Graphics/SVG/1.1/DTD/svg11.dtd">
<!-- Creator: CorelDRAW X7 -->
<svg xmlns="http://www.w3.org/2000/svg" xml:space="preserve" width="100mm" height="100mm" version="1.1" style="shape-rendering:geometricPrecision; text-rendering:geometricPrecision; image-rendering:optimizeQuality; fill-rule:evenodd; clip-rule:evenodd"
viewBox="0 0 10000 10000"
 xmlns:xlink="http://www.w3.org/1999/xlink">
 <defs>
  <style type="text/css">
   <![CDATA[
    .str0 {stroke:#7F0CE8;stroke-width:135.46}
    .fil0 {fill:none}
   ]]>
  </style>
 </defs>
 <g id="Слой_x0020_1">
  <metadata id="CorelCorpID_0Corel-Layer"/>
  <path class="fil0 str0" d="M3281 1634c304,0 232,434 798,441 320,4 763,17 1071,116 711,227 1131,475 1504,1039 274,415 551,1319 456,2055 -55,429 -56,748 -118,1153 -48,309 -215,831 -220,1052l-294 94c-55,-230 -209,-423 -209,-745 0,-435 296,-775 296,-1153 0,-672 -646,-1035 -1332,-1035l-1301 0c-465,0 -279,473 -651,473 -342,0 -191,-477 -502,-502 311,-217 311,-435 0,-651 333,-28 282,-426 0,-621 156,-13 232,-144 230,-296 -4,-222 -122,-219 -200,-326 275,-64 264,-500 0,-562 125,-170 105,3 204,-299 41,-127 107,-233 268,-233zm-531 266c-204,0 -503,43 -503,207 0,431 495,88 503,414 -497,0 -534,474 0,474 -7,307 -503,23 -503,384 0,194 282,237 503,237 -6,266 -385,96 -385,355 0,190 208,251 385,266 -7,302 -503,4 -503,385 0,173 307,236 503,236 14,663 1051,641 1064,59 908,0 2484,-180 2484,680 0,607 -266,477 -266,1361 0,185 182,887 414,887 584,0 601,-458 705,-923 231,-1035 212,-1199 212,-2182 0,-938 -494,-1797 -1018,-2236 -584,-489 -1469,-722 -2531,-722 -128,-242 -235,-432 -574,-396 -267,29 -484,243 -490,514l0 0z"/>
 </g>
</svg>
