<?xml version="1.0" encoding="UTF-8"?>
<!DOCTYPE svg PUBLIC "-//W3C//DTD SVG 1.1//EN" "http://www.w3.org/Graphics/SVG/1.1/DTD/svg11.dtd">
<!-- Creator: CorelDRAW X7 -->
<svg xmlns="http://www.w3.org/2000/svg" xml:space="preserve" width="143.933mm" height="25.3998mm" version="1.1" style="shape-rendering:geometricPrecision; text-rendering:geometricPrecision; image-rendering:optimizeQuality; fill-rule:evenodd; clip-rule:evenodd"
viewBox="0 0 14393 2540"
 xmlns:xlink="http://www.w3.org/1999/xlink">
 <defs>
  <style type="text/css">
   <![CDATA[
    .str0 {stroke:#FFEF02;stroke-width:7.62}
    .fil0 {fill:none;fill-rule:nonzero}
   ]]>
  </style>
 </defs>
 <g id="Слой_x0020_1">
  <metadata id="CorelCorpID_0Corel-Layer"/>
  <g>
   <path class="fil0 str0" d="M233 1452l0 85 883 1c93,0 184,13 250,-35 115,-85 63,-56 151,-142 121,-120 179,148 327,185 73,18 196,8 263,23 30,13 165,326 198,368 15,18 3,6 19,17 34,-192 57,-406 83,-602 13,-94 34,-204 47,-303 9,-75 25,-234 46,-294 22,55 80,604 94,716 30,242 52,488 90,726 22,-5 14,5 26,-27 39,-99 137,-518 181,-595 239,-16 306,62 487,-88 101,-85 208,-245 367,-216 171,31 197,175 327,259 85,55 128,45 252,44 97,-1 191,-2 288,-7l892 -1c104,3 191,15 265,-32 119,-76 161,-210 245,-167 36,18 48,40 75,72 43,50 96,116 157,135 81,26 194,-8 266,22 22,11 45,65 57,90l99 192c45,98 22,80 64,84l167 -1178c6,6 13,3 22,46 2,14 3,31 4,45 3,30 6,61 10,90 7,62 17,124 24,184 19,160 116,1051 136,1084 28,-30 164,-535 201,-634 102,0 204,12 307,2 112,-10 180,-89 246,-152l28 -24c372,-339 421,51 627,148 44,21 60,27 121,27l437 -11c198,-4 389,0 586,0 137,0 435,26 515,-24 181,-115 182,-283 329,-106 35,43 91,118 155,137 79,24 197,8 273,24 21,12 150,280 182,341 15,29 10,25 35,35l158 -1118c7,-76 16,-50 18,-61 1,-3 3,-3 4,-4l47 360c4,48 124,1067 137,1090l101 -320c31,-103 64,-213 98,-319 259,18 326,39 492,-92 125,-98 184,-228 371,-208 210,23 200,302 485,300 131,-1 258,-2 385,-6 263,-10 524,-1 787,1l0 -88c-268,0 -546,-9 -813,1 -123,4 -271,10 -388,3 -216,-11 -214,-298 -486,-311 -265,-12 -315,236 -503,296 -108,35 -269,0 -389,9 -23,34 -40,125 -52,173 -13,55 -29,135 -53,172 -23,-48 -100,-727 -111,-836 -26,-244 -66,-505 -88,-744 -10,-99 -3,-72 -31,-83l-109 764c-17,118 -43,265 -54,379 -7,73 -32,331 -63,373 -78,-96 -58,-172 -139,-186 -87,-15 -227,8 -293,-30 -64,-36 -109,-110 -162,-156 -28,-24 -57,-56 -111,-50 -37,3 -71,30 -97,57 -56,57 -95,128 -177,145 -73,16 -791,-14 -960,-6 -101,5 -207,10 -315,10 -91,0 -226,24 -297,-22 -141,-89 -149,-228 -352,-286 -202,-57 -323,120 -416,203 -80,72 -97,86 -221,100 -60,7 -281,-12 -302,1 -41,29 -68,307 -108,343 -24,-31 -168,-1352 -203,-1639l-15 -41c-26,36 -104,660 -118,762l-118 769c-28,-38 -40,-62 -61,-103 -21,-40 -28,-70 -74,-80 -62,-13 -254,-11 -294,-30 -62,-28 -103,-108 -160,-157 -191,-163 -236,106 -376,147 -40,12 -252,3 -312,3 -213,0 -425,-5 -638,-2 -665,10 -586,64 -789,-173 -37,-44 -111,-99 -188,-123 -98,-30 -200,-2 -264,44 -34,24 -50,41 -81,74 -244,251 -276,163 -610,177l-18 45c-17,64 -67,273 -87,304 -21,-32 -93,-723 -108,-833l-101 -841c-23,7 -17,-12 -25,34l-101 723c-16,102 -96,736 -119,763 -49,-38 -62,-150 -113,-178 -79,-21 -203,-5 -282,-21 -71,-14 -123,-94 -161,-133 -163,-170 -210,-67 -340,68 -65,67 -144,49 -258,49 -101,0 -190,-6 -289,-6 -198,-1 -396,0 -594,0z"/>
  </g>
 </g>
</svg>
