<?xml version="1.0" encoding="UTF-8"?>
<!DOCTYPE svg PUBLIC "-//W3C//DTD SVG 1.1//EN" "http://www.w3.org/Graphics/SVG/1.1/DTD/svg11.dtd">
<!-- Creator: CorelDRAW X7 -->
<svg xmlns="http://www.w3.org/2000/svg" xml:space="preserve" width="100mm" height="100mm" version="1.1" style="shape-rendering:geometricPrecision; text-rendering:geometricPrecision; image-rendering:optimizeQuality; fill-rule:evenodd; clip-rule:evenodd"
viewBox="0 0 10000 10000"
 xmlns:xlink="http://www.w3.org/1999/xlink">
 <defs>
  <style type="text/css">
   <![CDATA[
    .str0 {stroke:#7F0CE8;stroke-width:135.46}
    .fil0 {fill:none}
   ]]>
  </style>
 </defs>
 <g id="Слой_x0020_1">
  <metadata id="CorelCorpID_0Corel-Layer"/>
  <path class="fil0 str0" d="M7905 5300l113 -139c16,-18 25,-30 42,-48l141 -162c9,-12 7,-13 18,-26l121 -138c10,-14 8,-12 20,-24l59 -70c9,-10 13,-12 21,-24l104 -116 0 1386c-26,-18 -639,-639 -639,-639l0 0zm-5054 641l-1 -1392c19,13 256,300 302,349 12,11 9,13 20,24 6,9 12,12 19,20l304 358 -644 641 0 0zm2220 -1701l1257 0c19,0 210,201 226,217l443 443c39,39 73,73 112,112 28,28 92,86 111,114l-3040 0c17,-26 408,-412 441,-445 76,-75 146,-146 222,-221 39,-39 74,-74 112,-113 17,-16 100,-107 116,-107zm1771 1l1494 -1c-8,12 -10,13 -21,23l-64 76c-17,17 -26,30 -42,48l-45 51c-9,14 -8,13 -20,25l-323 378c-7,10 -14,13 -22,22l-153 179 -804 -801 0 0zm-3778 -1l1486 0 -798 800c-19,-13 -27,-24 -42,-44l-130 -150c-9,-13 -11,-13 -21,-24l-194 -227c-60,-62 -156,-189 -216,-250l-85 -105zm-747 -724c0,-84 78,-163 152,-163l6457 0c50,0 90,33 121,69 27,31 35,97 35,155l0 303 -6765 0 0 -364zm-1424 0c0,-84 77,-163 151,-163l752 0c46,0 69,15 98,37 18,14 8,4 22,23 33,45 43,75 43,137l0 330 -1066 0 0 -364 0 0zm-360 -17l0 741 1959 0 0 3029 358 0 0 -808c0,-19 223,-232 241,-249l669 -669c13,-13 49,-58 66,-58l3747 0c19,0 229,220 246,237l667 667c13,13 58,48 58,66l0 814 358 0 0 -3029 539 0 0 -673c0,-131 -26,-236 -92,-335 -60,-90 -137,-150 -235,-196 -66,-32 -149,-47 -245,-47l-6338 0c-159,0 -241,33 -356,109 -18,12 -22,21 -37,31l-75 -54c-88,-59 -196,-86 -312,-86l-656 0c-143,0 -294,48 -388,144 -98,99 -174,214 -174,366z"/>
 </g>
</svg>
