<?xml version="1.0" encoding="UTF-8"?>
<!DOCTYPE svg PUBLIC "-//W3C//DTD SVG 1.1//EN" "http://www.w3.org/Graphics/SVG/1.1/DTD/svg11.dtd">
<!-- Creator: CorelDRAW X7 -->
<svg xmlns="http://www.w3.org/2000/svg" xml:space="preserve" width="84.6666mm" height="84.6666mm" version="1.1" style="shape-rendering:geometricPrecision; text-rendering:geometricPrecision; image-rendering:optimizeQuality; fill-rule:evenodd; clip-rule:evenodd"
viewBox="0 0 8467 8467"
 xmlns:xlink="http://www.w3.org/1999/xlink">
 <defs>
  <style type="text/css">
   <![CDATA[
    .fil0 {fill:#7F0CE8}
   ]]>
  </style>
 </defs>
 <g id="Слой_x0020_1">
  <metadata id="CorelCorpID_0Corel-Layer"/>
  <g id="_918052810720">
   <path class="fil0" d="M5957 4939l15 15c-1,-1 -21,-10 -15,-15zm-3692 -2964c227,-61 418,-309 1153,-511 2123,-584 3839,1421 2162,3098 -663,662 -1303,729 -1860,1572 -69,104 -663,1145 -259,1145 852,0 543,27 708,-644 154,-632 702,-1144 1216,-1488 -91,338 -753,683 -870,1898 -28,289 15,234 610,234 256,0 126,-554 330,-1178 76,-236 131,-347 219,-561 49,-118 50,-146 108,-256 59,-111 107,-163 175,-241 0,703 -236,843 -122,1837 58,502 -196,399 1266,399 -44,-162 -143,-259 -203,-422 -55,-152 -89,-313 -130,-494 -279,-1225 -259,-1081 133,-2040 389,-955 350,-1987 -484,-2653 -788,-630 -1181,-631 -2228,-631 -429,0 -826,126 -1128,277 -267,133 -721,379 -796,659z"/>
   <path class="fil0" d="M3721 2807l-104 -52c-261,-61 -271,-136 -854,-238 -333,-59 -672,-89 -896,-248 -373,-265 -153,-970 970,-970 -118,-102 -188,-145 -366,-159 -186,-14 -344,29 -498,75 -1411,419 -905,1683 -124,1748 0,537 157,843 -93,1103 -203,210 -159,-47 -167,301 172,-62 510,-451 522,-778 26,-739 -105,-570 726,-575 1036,-4 1280,554 780,1301 269,-72 435,-397 455,-686 25,-374 -208,-608 -351,-822z"/>
   <path class="fil0" d="M3617 2755l104 52c361,84 726,588 673,1085 -73,695 -604,470 -1157,667 -451,160 -724,441 -963,805 -368,559 -287,927 -893,927 -343,-395 -82,-580 208,-832 -402,9 -689,400 -672,672 33,529 1041,1076 1433,-67 652,-1901 1835,-831 2289,-1871 242,-554 -98,-1078 -589,-1352 -52,-29 -199,-107 -251,-125 -189,-67 -135,-102 -182,39z"/>
   <path class="fil0" d="M2265 7279c1028,0 230,-167 799,-1021 251,-376 304,-459 738,-718 580,-348 1323,-570 1323,-1589 0,-76 -64,-76 -104,-104 -20,898 -981,1298 -1612,1612 -692,344 -1196,804 -1264,1608 -12,139 -60,212 120,212z"/>
   <path class="fil0" d="M1589 4731c49,210 14,156 156,208 -311,464 170,426 344,240l176 -292c-329,-88 -405,-421 -676,-156z"/>
   <path class="fil0" d="M2317 3847c217,5 313,77 628,-99 231,-129 90,9 152,-161l-572 52 -104 -260c0,326 -48,228 -104,468z"/>
  </g>
 </g>
</svg>
