<?xml version="1.0"?>
<svg xmlns="http://www.w3.org/2000/svg" height="512px" viewBox="0 0 384.02148 384" width="512px"><path d="m381.753906 132.5c-4.964844-14.679688-16.894531-23.929688-27.421875-32.097656-5.625-4.359375-10.9375-8.480469-14.007812-12.519532-3.128907-4.121093-5.601563-10.273437-8.214844-16.792968-4.839844-12.054688-10.335937-25.710938-23.050781-34.582032-12.445313-8.695312-27.445313-9.503906-40.679688-10.199218-7.4375-.402344-14.464844-.777344-19.816406-2.449219-4.902344-1.519531-10.566406-5.054687-16.558594-8.800781-11.296875-7.054688-24.105468-15.0468752-40-15.0468752-15.902344 0-28.695312 7.9921872-39.984375 15.0468752-6 3.746094-11.65625 7.273437-16.566406 8.808594-5.34375 1.664062-12.378906 2.039062-19.824219 2.441406-13.226562.710937-28.21875 1.503906-40.679687 10.199218-12.707031 8.871094-18.195313 22.527344-23.042969 34.574219-2.613281 6.519531-5.09375 12.679688-8.230469 16.816407-3.070312 4.046874-8.382812 8.167968-14.015625 12.527343-10.503906 8.160157-22.433594 17.402344-27.390625 32.066407-4.832031 14.253906-.953125 28.328124 2.46875 40.742187 1.90625 6.914063 3.707031 13.433594 3.707031 18.777344 0 5.351562-1.800781 11.871093-3.707031 18.792969-3.421875 12.40625-7.292969 26.476562-2.46875 40.742187 4.964844 14.664063 16.886719 23.902344 27.40625 32.0625 5.625 4.363281 10.9375 8.480469 14.007813 12.519531 3.128906 4.128906 5.601562 10.28125 8.222656 16.808594 4.839844 12.058594 10.34375 25.714844 23.066406 34.601562 12.445313 8.679688 27.429688 9.480469 40.65625 10.175782 7.445313.398437 14.480469.777344 19.824219 2.441406 4.902344 1.527344 10.558594 5.0625 16.542969 8.804688 11.296875 7.058593 24.105468 15.050781 40.007812 15.050781s28.71875-7.992188 40.015625-15.050781c5.992188-3.742188 11.648438-7.269532 16.550781-8.804688 5.34375-1.664062 12.378907-2.042969 19.824219-2.441406 13.226563-.703125 28.210938-1.503906 40.664063-10.183594 12.722656-8.878906 18.210937-22.550781 23.066406-34.617188 2.613281-6.511718 5.085938-12.671874 8.199219-16.773437 3.070312-4.050781 8.382812-8.167969 14.007812-12.523437 10.519531-8.160157 22.457031-17.40625 27.421875-32.070313 4.832032-14.265625.945313-28.335937-2.476562-40.753906-1.914063-6.910157-3.714844-13.445313-3.714844-18.789063s1.800781-11.875 3.714844-18.785156c3.421875-12.398438 7.300781-26.480469 2.476562-40.71875zm-33.324218 86.808594c2.300781 8.367187 4.695312 17.023437 3.015624 21.972656-1.875 5.546875-9.417968 11.394531-16.714843 17.050781-7.015625 5.4375-14.261719 11.054688-19.894531 18.472657-5.710938 7.527343-9.121094 16-12.40625 24.183593-3.496094 8.679688-6.792969 16.878907-11.691407 20.300781-4.949219 3.464844-14.222656 3.953126-24.046875 4.480469-9.085937.488281-18.480468.984375-27.632812 3.839844-8.839844 2.753906-16.535156 7.554687-23.984375 12.203125-8.398438 5.246094-16.328125 10.199219-23.070313 10.199219-6.734375 0-14.664062-4.953125-23.054687-10.183594-7.449219-4.648437-15.144531-9.464844-23.984375-12.210937-9.160156-2.855469-18.546875-3.359376-27.632813-3.839844-9.824219-.519532-19.097656-1.015625-24.039062-4.46875-4.90625-3.425782-8.199219-11.625-11.695313-20.304688-3.296875-8.183594-6.707031-16.664062-12.433594-24.199218-5.617187-7.410157-12.863281-13.035157-19.878906-18.472657-7.289062-5.648437-14.832031-11.503906-16.707031-17.042969-1.679687-4.957031.707031-13.613281 3.007813-21.992187 2.273437-8.246094 4.851562-17.605469 4.851562-27.277344s-2.578125-19.023437-4.851562-27.28125c-2.300782-8.367187-4.6875-17.015625-3.007813-21.984375 1.875-5.535156 9.410156-11.382812 16.699219-17.03125 7.015625-5.449218 14.277344-11.078125 19.886718-18.480468 5.726563-7.542969 9.144532-16.023438 12.441407-24.214844 3.488281-8.671875 6.78125-16.863282 11.664062-20.273438 4.964844-3.472656 14.246094-3.96875 24.070313-4.496094 9.078125-.488281 18.464844-.992187 27.617187-3.832031 8.847657-2.75 16.550781-7.566406 24.007813-12.214843 8.390625-5.257813 16.3125-10.199219 23.039062-10.199219 6.734375 0 14.65625 4.941406 23.054688 10.183593 7.457031 4.65625 15.160156 9.472657 24 12.207032 9.160156 2.847656 18.539062 3.359375 27.617187 3.839844 9.824219.519531 19.105469 1.015624 24.0625 4.496093 4.898438 3.417969 8.183594 11.601563 11.671875 20.273438 3.296875 8.191406 6.707032 16.671875 12.433594 24.214843 5.625 7.398438 12.871094 13.023438 19.886719 18.464844 7.289062 5.648438 14.832031 11.503906 16.714843 17.054688 1.679688 4.953125-.714843 13.601562-3.015624 21.96875-2.28125 8.257812-4.867188 17.617187-4.867188 27.296875 0 9.679687 2.585938 19.039062 4.867188 27.296875zm0 0" fill="#7f0ce8"/><path d="m264.003906 192.011719c0 39.703125-32.296875 72-72 72s-72-32.296875-72-72 32.296875-72 72-72h16v-32h-16c-57.34375 0-104 46.65625-104 104s46.65625 104 104 104 104-46.65625 104-104v-16h-32zm0 0" fill="#7f0ce8"/><path d="m176.003906 153.386719-22.625 22.625 38.625 38.621093 86.625-86.621093-22.625-22.625-64 64zm0 0" fill="#7f0ce8"/></svg>
